g the_coin
v -0.130076 0.266256 0.028468
v -0.000000 0.692317 0.000000
v 0.173410 0.454544 0.036501
v -0.057744 0.686630 0.000000
v -0.196743 0.481625 0.028468
v -0.113269 0.669787 0.000000
v -0.164440 0.642435 0.000000
v -0.000000 0.526409 0.028468
v -0.209293 0.605625 0.000000
v 0.114649 0.277929 0.036500
v -0.065038 0.412922 0.028468
v -0.246102 0.560773 -0.000000
v -0.273454 0.509601 -0.000000
v -0.290298 0.454076 -0.000000
v -0.295985 0.396332 -0.000000
v -0.290298 0.338589 -0.000000
v -0.273454 0.283064 -0.000000
v -0.246102 0.231892 -0.000000
v 0.130076 0.266256 0.028468
v -0.209293 0.187039 -0.000000
v 0.196743 0.481625 0.028468
v -0.164440 0.150230 -0.000000
v -0.113269 0.122878 -0.000000
v 0.065038 0.266256 0.028468
v 0.065038 0.412922 0.028468
v -0.057744 0.106035 -0.000000
v -0.000000 0.100347 -0.000000
v 0.057744 0.106035 -0.000000
v 0.113269 0.122878 -0.000000
v 0.164440 0.150230 -0.000000
v 0.209293 0.187039 -0.000000
v 0.246102 0.231892 -0.000000
v 0.273454 0.283064 -0.000000
v 0.290298 0.338589 -0.000000
v 0.295985 0.396332 -0.000000
v 0.290298 0.454076 -0.000000
v 0.273454 0.509601 -0.000000
v 0.246102 0.560773 -0.000000
v 0.209293 0.605625 0.000000
v 0.164440 0.642435 0.000000
v 0.113269 0.669787 0.000000
v 0.057744 0.686630 0.000000
v -0.000000 0.692317 0.020465
v -0.057744 0.686630 0.020465
v -0.113269 0.669787 0.020465
v -0.164440 0.642435 0.020465
v -0.209293 0.605625 0.020465
v -0.246102 0.560773 0.020465
v -0.273454 0.509601 0.020465
v -0.290298 0.454076 0.020465
v -0.295985 0.396332 0.020465
v -0.290298 0.338589 0.020465
v -0.273454 0.283064 0.020465
v -0.246102 0.231892 0.020465
v -0.209293 0.187039 0.020465
v -0.164440 0.150230 0.020465
v -0.113269 0.122878 0.020465
v -0.057744 0.106035 0.020465
v -0.000000 0.100347 0.020465
v 0.057744 0.106035 0.020465
v 0.113269 0.122878 0.020465
v 0.164440 0.150230 0.020465
v 0.209293 0.187039 0.020465
v 0.246102 0.231892 0.020465
v 0.273454 0.283064 0.020465
v 0.290298 0.338589 0.020465
v 0.295985 0.396332 0.020465
v 0.290298 0.454076 0.020465
v 0.273454 0.509601 0.020465
v 0.246102 0.560773 0.020465
v 0.209293 0.605625 0.020465
v 0.164440 0.642435 0.020465
v 0.113269 0.669787 0.020465
v 0.057744 0.686630 0.020465
v -0.043245 0.613741 0.028591
v -0.000000 0.618000 0.028591
v -0.084829 0.601127 0.028591
v -0.123152 0.580643 0.028591
v -0.156743 0.553075 0.028591
v -0.184310 0.519485 0.028591
v -0.204794 0.481161 0.028591
v -0.217409 0.439578 0.028591
v -0.221668 0.396332 0.028591
v -0.217409 0.353087 0.028591
v -0.204794 0.311504 0.028591
v -0.184310 0.273180 0.028591
v -0.156743 0.239590 0.028591
v -0.123152 0.212022 0.028591
v -0.084829 0.191538 0.028591
v -0.043245 0.178924 0.028591
v -0.000000 0.174665 0.028591
v 0.043245 0.178924 0.028591
v 0.084829 0.191538 0.028591
v 0.123152 0.212022 0.028591
v 0.156743 0.239590 0.028591
v 0.184310 0.273180 0.028591
v 0.204794 0.311504 0.028591
v 0.217409 0.353087 0.028591
v 0.221668 0.396332 0.028591
v 0.217409 0.439578 0.028591
v 0.204794 0.481161 0.028591
v 0.184310 0.519485 0.028591
v 0.156743 0.553075 0.028591
v 0.123152 0.580643 0.028591
v 0.084829 0.601127 0.028591
v 0.043245 0.613741 0.028591
v -0.052174 0.658631 0.040943
v -0.000000 0.663769 0.040943
v -0.102344 0.643412 0.040943
v -0.148580 0.618698 0.040943
v -0.189107 0.585439 0.040943
v -0.222366 0.544912 0.040943
v -0.247080 0.498676 0.040943
v -0.262298 0.448507 0.040943
v -0.267437 0.396332 0.040943
v -0.262298 0.344158 0.040943
v -0.247080 0.293989 0.040943
v -0.222366 0.247752 0.040943
v -0.189107 0.207226 0.040943
v -0.148580 0.173967 0.040943
v -0.102344 0.149253 0.040943
v -0.052174 0.134034 0.040943
v -0.000000 0.128895 0.040943
v 0.052174 0.134034 0.040943
v 0.102344 0.149253 0.040943
v 0.148580 0.173967 0.040943
v 0.189107 0.207226 0.040943
v 0.222366 0.247752 0.040943
v 0.247080 0.293989 0.040943
v 0.262298 0.344158 0.040943
v 0.267437 0.396332 0.040943
v 0.262298 0.448507 0.040943
v 0.247080 0.498676 0.040943
v 0.222366 0.544912 0.040943
v 0.189107 0.585439 0.040943
v 0.148580 0.618698 0.040943
v 0.102344 0.643412 0.040943
v 0.052174 0.658631 0.040943
v -0.047001 0.632622 0.040943
v -0.000000 0.637252 0.040943
v -0.092196 0.618913 0.040943
v -0.133848 0.596649 0.040943
v -0.170356 0.566688 0.040943
v -0.200317 0.530180 0.040943
v -0.222580 0.488528 0.040943
v -0.236290 0.443333 0.040943
v -0.240919 0.396332 0.040943
v -0.236290 0.349331 0.040943
v -0.222580 0.304137 0.040943
v -0.200317 0.262485 0.040943
v -0.170356 0.225977 0.040943
v -0.133848 0.196015 0.040943
v -0.092196 0.173752 0.040943
v -0.047001 0.160042 0.040943
v -0.000000 0.155413 0.040943
v 0.047001 0.160042 0.040943
v 0.092196 0.173752 0.040943
v 0.133848 0.196015 0.040943
v 0.170356 0.225977 0.040943
v 0.200317 0.262485 0.040943
v 0.222580 0.304137 0.040943
v 0.236290 0.349331 0.040943
v 0.240919 0.396332 0.040943
v 0.236290 0.443333 0.040943
v 0.222580 0.488528 0.040943
v 0.200317 0.530180 0.040943
v 0.170356 0.566688 0.040943
v 0.133848 0.596649 0.040943
v 0.092196 0.618913 0.040943
v 0.047001 0.632622 0.040943
v 0.057325 0.393989 0.036501
v 0.057325 0.277929 0.036500
v -0.173410 0.454544 0.036501
v -0.114649 0.277929 0.036500
v -0.065038 0.266256 0.028468
v -0.057325 0.393989 0.036501
v -0.000000 0.266256 0.028468
v -0.000000 0.507228 0.036501
v -0.000000 0.277929 0.036500
v -0.057325 0.277929 0.036500
v -0.130076 0.266256 -0.028468
v 0.173410 0.454544 -0.036501
v -0.196743 0.481625 -0.028468
v -0.000000 0.526409 -0.028468
v 0.114649 0.277929 -0.036501
v -0.065038 0.412922 -0.028468
v 0.130076 0.266256 -0.028468
v 0.196743 0.481625 -0.028468
v 0.065038 0.266256 -0.028468
v 0.065038 0.412922 -0.028468
v -0.000000 0.692317 -0.020465
v -0.057744 0.686630 -0.020465
v -0.113269 0.669787 -0.020465
v -0.164440 0.642435 -0.020465
v -0.209293 0.605625 -0.020465
v -0.246102 0.560773 -0.020465
v -0.273454 0.509601 -0.020465
v -0.290298 0.454076 -0.020465
v -0.295985 0.396332 -0.020465
v -0.290298 0.338589 -0.020465
v -0.273454 0.283064 -0.020465
v -0.246102 0.231892 -0.020465
v -0.209293 0.187039 -0.020465
v -0.164440 0.150230 -0.020465
v -0.113269 0.122878 -0.020465
v -0.057744 0.106035 -0.020465
v -0.000000 0.100347 -0.020465
v 0.057744 0.106035 -0.020465
v 0.113269 0.122878 -0.020465
v 0.164440 0.150230 -0.020465
v 0.209293 0.187039 -0.020465
v 0.246102 0.231892 -0.020465
v 0.273454 0.283064 -0.020465
v 0.290298 0.338589 -0.020465
v 0.295985 0.396332 -0.020465
v 0.290298 0.454076 -0.020465
v 0.273454 0.509601 -0.020465
v 0.246102 0.560773 -0.020465
v 0.209293 0.605625 -0.020465
v 0.164440 0.642435 -0.020465
v 0.113269 0.669787 -0.020465
v 0.057744 0.686630 -0.020465
v -0.043245 0.613741 -0.028591
v -0.000000 0.618000 -0.028591
v -0.084829 0.601127 -0.028591
v -0.123152 0.580643 -0.028591
v -0.156743 0.553075 -0.028591
v -0.184310 0.519485 -0.028591
v -0.204794 0.481161 -0.028591
v -0.217409 0.439578 -0.028591
v -0.221668 0.396332 -0.028591
v -0.217409 0.353087 -0.028591
v -0.204794 0.311504 -0.028591
v -0.184310 0.273180 -0.028591
v -0.156743 0.239590 -0.028591
v -0.123152 0.212022 -0.028591
v -0.084829 0.191538 -0.028591
v -0.043245 0.178924 -0.028591
v -0.000000 0.174665 -0.028591
v 0.043245 0.178924 -0.028591
v 0.084829 0.191538 -0.028591
v 0.123152 0.212022 -0.028591
v 0.156743 0.239590 -0.028591
v 0.184310 0.273180 -0.028591
v 0.204794 0.311504 -0.028591
v 0.217409 0.353087 -0.028591
v 0.221668 0.396332 -0.028591
v 0.217409 0.439578 -0.028591
v 0.204794 0.481161 -0.028591
v 0.184310 0.519485 -0.028591
v 0.156743 0.553075 -0.028591
v 0.123152 0.580643 -0.028591
v 0.084829 0.601127 -0.028591
v 0.043245 0.613741 -0.028591
v -0.052174 0.658631 -0.040943
v -0.000000 0.663769 -0.040943
v -0.102344 0.643412 -0.040943
v -0.148580 0.618698 -0.040943
v -0.189107 0.585439 -0.040943
v -0.222366 0.544912 -0.040943
v -0.247080 0.498676 -0.040943
v -0.262298 0.448507 -0.040943
v -0.267437 0.396332 -0.040943
v -0.262298 0.344158 -0.040943
v -0.247080 0.293989 -0.040943
v -0.222366 0.247752 -0.040943
v -0.189107 0.207226 -0.040943
v -0.148580 0.173967 -0.040943
v -0.102344 0.149253 -0.040943
v -0.052174 0.134034 -0.040943
v -0.000000 0.128895 -0.040943
v 0.052174 0.134034 -0.040943
v 0.102344 0.149253 -0.040943
v 0.148580 0.173967 -0.040943
v 0.189107 0.207226 -0.040943
v 0.222366 0.247752 -0.040943
v 0.247080 0.293989 -0.040943
v 0.262298 0.344158 -0.040943
v 0.267437 0.396332 -0.040943
v 0.262298 0.448507 -0.040943
v 0.247080 0.498676 -0.040943
v 0.222366 0.544912 -0.040943
v 0.189107 0.585439 -0.040943
v 0.148580 0.618698 -0.040943
v 0.102344 0.643412 -0.040943
v 0.052174 0.658631 -0.040943
v -0.047001 0.632622 -0.040943
v -0.000000 0.637252 -0.040943
v -0.092196 0.618913 -0.040943
v -0.133848 0.596649 -0.040943
v -0.170356 0.566688 -0.040943
v -0.200317 0.530180 -0.040943
v -0.222580 0.488528 -0.040943
v -0.236290 0.443333 -0.040943
v -0.240919 0.396332 -0.040943
v -0.236290 0.349331 -0.040943
v -0.222580 0.304137 -0.040943
v -0.200317 0.262485 -0.040943
v -0.170356 0.225977 -0.040943
v -0.133848 0.196015 -0.040943
v -0.092196 0.173752 -0.040943
v -0.047001 0.160042 -0.040943
v -0.000000 0.155413 -0.040943
v 0.047001 0.160042 -0.040943
v 0.092196 0.173752 -0.040943
v 0.133848 0.196015 -0.040943
v 0.170356 0.225977 -0.040943
v 0.200317 0.262485 -0.040943
v 0.222580 0.304137 -0.040943
v 0.236290 0.349331 -0.040943
v 0.240919 0.396332 -0.040943
v 0.236290 0.443333 -0.040943
v 0.222580 0.488528 -0.040943
v 0.200317 0.530180 -0.040943
v 0.170356 0.566688 -0.040943
v 0.133848 0.596649 -0.040943
v 0.092196 0.618913 -0.040943
v 0.047001 0.632622 -0.040943
v 0.057325 0.393989 -0.036501
v 0.057325 0.277929 -0.036501
v -0.173410 0.454544 -0.036501
v -0.114649 0.277929 -0.036501
v -0.065038 0.266256 -0.028468
v -0.057325 0.393989 -0.036501
v -0.000000 0.266256 -0.028468
v -0.000000 0.507228 -0.036501
v -0.000000 0.277929 -0.036501
v -0.057325 0.277929 -0.036501
vn 0.4714 0.8819 -0.0000
vn 0.0980 -0.9952 -0.0000
vn -0.6344 0.7730 -0.0000
vn 0.2903 0.9569 -0.0000
vn 0.2903 -0.9569 -0.0000
vn -0.7730 0.6344 -0.0000
vn 0.0980 0.9952 -0.0000
vn 0.4714 -0.8819 -0.0000
vn -0.8819 0.4714 -0.0000
vn 0.6344 -0.7730 -0.0000
vn -0.9569 0.2903 -0.0000
vn 0.7730 -0.6344 -0.0000
vn -0.9952 0.0980 -0.0000
vn 0.8819 -0.4714 -0.0000
vn -0.9952 -0.0980 -0.0000
vn 0.9569 -0.2903 -0.0000
vn -0.9569 -0.2903 -0.0000
vn 0.9952 -0.0980 -0.0000
vn -0.8819 -0.4714 -0.0000
vn 0.9952 0.0980 -0.0000
vn -0.7730 -0.6344 -0.0000
vn 0.9569 0.2903 -0.0000
vn -0.6344 -0.7730 -0.0000
vn 0.8819 0.4714 -0.0000
vn -0.4714 -0.8819 -0.0000
vn -0.0980 0.9952 -0.0000
vn 0.7730 0.6344 -0.0000
vn -0.2903 -0.9569 -0.0000
vn -0.2903 0.9569 -0.0000
vn 0.6344 0.7730 -0.0000
vn -0.0980 -0.9952 -0.0000
vn -0.4714 0.8819 -0.0000
vn -0.0573 -0.5819 0.8112
vn -0.0014 -0.0028 1.0000
vn -0.0155 -0.0047 0.9999
vn -0.2756 0.5157 0.8112
vn 0.2756 0.5157 0.8112
vn 0.0573 -0.5819 0.8112
vn -0.3709 0.4520 0.8112
vn 0.1697 0.5596 0.8112
vn 0.1697 -0.5595 0.8112
vn -0.4520 0.3709 0.8112
vn 0.0573 0.5819 0.8112
vn 0.2756 -0.5157 0.8112
vn -0.5157 0.2756 0.8112
vn 0.3709 -0.4520 0.8112
vn -0.5596 0.1697 0.8112
vn 0.4520 -0.3709 0.8112
vn -0.5819 0.0573 0.8112
vn 0.5157 -0.2756 0.8112
vn -0.5819 -0.0573 0.8112
vn 0.5596 -0.1697 0.8112
vn -0.5595 -0.1697 0.8112
vn 0.5819 -0.0573 0.8112
vn -0.5157 -0.2756 0.8112
vn 0.5819 0.0573 0.8112
vn -0.4520 -0.3709 0.8112
vn 0.5596 0.1697 0.8112
vn -0.3709 -0.4520 0.8112
vn 0.5157 0.2756 0.8112
vn -0.2756 -0.5157 0.8112
vn -0.0573 0.5819 0.8112
vn 0.4520 0.3709 0.8112
vn -0.1697 -0.5596 0.8112
vn -0.1697 0.5596 0.8112
vn 0.3709 0.4520 0.8112
vn -0.0000 -0.0000 1.0000
vn 0.0531 -0.5393 0.8405
vn 0.1573 -0.5185 0.8405
vn 0.2554 -0.4779 0.8405
vn 0.3438 -0.4189 0.8405
vn 0.4189 -0.3438 0.8405
vn 0.4779 -0.2554 0.8405
vn 0.5185 -0.1573 0.8405
vn 0.5393 -0.0531 0.8405
vn 0.5393 0.0531 0.8405
vn 0.5185 0.1573 0.8405
vn 0.4779 0.2554 0.8405
vn 0.4189 0.3438 0.8405
vn 0.3438 0.4189 0.8405
vn 0.2554 0.4779 0.8405
vn 0.1573 0.5185 0.8405
vn 0.0531 0.5393 0.8405
vn -0.0531 0.5393 0.8405
vn -0.1573 0.5185 0.8405
vn -0.2554 0.4779 0.8405
vn -0.3438 0.4189 0.8405
vn -0.4189 0.3438 0.8405
vn -0.4779 0.2554 0.8405
vn -0.5185 0.1573 0.8405
vn -0.5393 0.0531 0.8405
vn -0.5393 -0.0531 0.8405
vn -0.5185 -0.1573 0.8405
vn -0.4779 -0.2554 0.8405
vn -0.4189 -0.3438 0.8405
vn -0.3438 -0.4189 0.8405
vn -0.2554 -0.4779 0.8405
vn -0.1573 -0.5185 0.8405
vn -0.0531 -0.5393 0.8405
vn 0.4119 0.2085 0.8870
vn -0.0000 -0.5669 0.8238
vn -0.4683 -0.1450 0.8716
vn 0.3810 -0.1267 0.9159
vn -0.5589 0.3203 0.7649
vn 0.2402 0.4604 0.8546
vn -0.2402 0.4604 0.8546
vn 0.0025 0.0021 1.0000
vn 0.0008 0.0014 1.0000
vn 0.0001 0.0013 1.0000
vn -0.0005 0.0015 1.0000
vn -0.0021 0.0025 1.0000
vn 0.0014 -0.0028 1.0000
vn -0.0573 -0.5819 -0.8112
vn 0.0006 -0.0005 -1.0000
vn -0.0020 0.0006 -1.0000
vn -0.2756 0.5157 -0.8112
vn 0.2756 0.5157 -0.8112
vn 0.0573 -0.5819 -0.8112
vn -0.3709 0.4520 -0.8112
vn 0.1697 0.5596 -0.8112
vn 0.1697 -0.5595 -0.8112
vn -0.4520 0.3709 -0.8112
vn 0.0573 0.5819 -0.8112
vn 0.2756 -0.5157 -0.8112
vn -0.5157 0.2756 -0.8112
vn 0.3709 -0.4520 -0.8112
vn -0.5596 0.1697 -0.8112
vn 0.4520 -0.3709 -0.8112
vn -0.5819 0.0573 -0.8112
vn 0.5157 -0.2756 -0.8112
vn -0.5819 -0.0573 -0.8112
vn 0.5596 -0.1697 -0.8112
vn -0.5596 -0.1697 -0.8112
vn 0.5819 -0.0573 -0.8112
vn -0.5157 -0.2756 -0.8112
vn 0.5819 0.0573 -0.8112
vn -0.4520 -0.3709 -0.8112
vn 0.5596 0.1697 -0.8112
vn -0.3709 -0.4520 -0.8112
vn 0.5157 0.2756 -0.8112
vn -0.2756 -0.5157 -0.8112
vn -0.0573 0.5819 -0.8112
vn 0.4520 0.3709 -0.8112
vn -0.1697 -0.5596 -0.8112
vn -0.1697 0.5596 -0.8112
vn 0.3709 0.4520 -0.8112
vn -0.0000 -0.0000 -1.0000
vn 0.0531 -0.5393 -0.8405
vn 0.1573 -0.5185 -0.8405
vn 0.2554 -0.4779 -0.8405
vn 0.3438 -0.4189 -0.8405
vn 0.4189 -0.3438 -0.8405
vn 0.4779 -0.2554 -0.8405
vn 0.5185 -0.1573 -0.8405
vn 0.5393 -0.0531 -0.8405
vn 0.5393 0.0531 -0.8405
vn 0.5185 0.1573 -0.8405
vn 0.4779 0.2554 -0.8405
vn 0.4189 0.3438 -0.8405
vn 0.3438 0.4189 -0.8405
vn 0.2554 0.4779 -0.8405
vn 0.1573 0.5185 -0.8405
vn 0.0531 0.5393 -0.8405
vn -0.0531 0.5393 -0.8405
vn -0.1573 0.5185 -0.8405
vn -0.2554 0.4779 -0.8405
vn -0.3438 0.4189 -0.8405
vn -0.4189 0.3438 -0.8405
vn -0.4779 0.2554 -0.8405
vn -0.5185 0.1573 -0.8405
vn -0.5393 0.0531 -0.8405
vn -0.5393 -0.0531 -0.8405
vn -0.5185 -0.1573 -0.8405
vn -0.4779 -0.2554 -0.8405
vn -0.4189 -0.3438 -0.8405
vn -0.3438 -0.4189 -0.8405
vn -0.2554 -0.4779 -0.8405
vn -0.1573 -0.5185 -0.8405
vn -0.0531 -0.5393 -0.8405
vn 0.5589 0.3203 -0.7649
vn -0.0000 -0.5669 -0.8238
vn -0.4683 -0.1450 -0.8716
vn 0.4683 -0.1450 -0.8716
vn -0.5589 0.3203 -0.7649
vn 0.2402 0.4604 -0.8546
vn -0.2402 0.4604 -0.8546
vn 0.0016 0.0002 -1.0000
vn 0.0008 0.0014 -1.0000
vn 0.0001 0.0013 -1.0000
vn -0.0005 0.0015 -1.0000
vn -0.0021 0.0025 -1.0000
vn -0.0157 -0.0084 -0.9998
vn 0.0007 -0.0004 1.0000
vn 0.0001 -0.0013 1.0000
vn 0.0006 -0.0008 1.0000
vn 0.0004 -0.0012 1.0000
vn 0.0005 -0.0010 1.0000
vn 0.0006 -0.0005 1.0000
vn 0.0157 -0.0084 0.9998
vn -0.0024 0.0007 1.0000
vn -0.0025 0.0021 1.0000
vn -0.0016 0.0002 1.0000
vn -0.0024 0.0013 1.0000
vn -0.0020 0.0006 1.0000
vn -0.0074 -0.0007 1.0000
vn 0.1697 0.5595 0.8112
vn 0.1697 -0.5596 0.8112
vn 0.5595 -0.1697 0.8112
vn -0.5596 -0.1697 0.8112
vn -0.1697 -0.5595 0.8112
vn -0.1697 0.5595 0.8112
vn 0.5589 0.3203 0.7649
vn -0.3810 -0.1267 0.9159
vn 0.4683 -0.1450 0.8716
vn -0.4119 0.2085 0.8870
vn 0.0024 0.0007 1.0000
vn 0.0155 -0.0047 0.9999
vn 0.0074 -0.0007 1.0000
vn 0.0016 0.0002 1.0000
vn 0.0020 0.0006 1.0000
vn 0.0024 0.0013 1.0000
vn -0.0000 0.0023 1.0000
vn 0.0021 0.0025 1.0000
vn -0.0000 0.0014 1.0000
vn 0.0005 0.0015 1.0000
vn -0.0001 0.0013 1.0000
vn -0.0008 0.0014 1.0000
vn -0.0157 -0.0084 0.9998
vn -0.0006 -0.0005 1.0000
vn -0.0006 -0.0008 1.0000
vn -0.0007 -0.0004 1.0000
vn -0.0005 -0.0010 1.0000
vn -0.0004 -0.0012 1.0000
vn -0.0001 -0.0013 1.0000
vn 0.0001 -0.0013 -1.0000
vn 0.0007 -0.0004 -1.0000
vn 0.0005 -0.0010 -1.0000
vn 0.0157 -0.0084 -0.9998
vn 0.0004 -0.0012 -1.0000
vn -0.0014 -0.0028 -1.0000
vn 0.0006 -0.0008 -1.0000
vn -0.0025 0.0021 -1.0000
vn -0.0024 0.0007 -1.0000
vn -0.0024 0.0013 -1.0000
vn -0.0155 -0.0047 -0.9999
vn -0.0074 -0.0007 -1.0000
vn -0.0016 0.0002 -1.0000
vn 0.1697 0.5595 -0.8112
vn 0.1697 -0.5596 -0.8112
vn 0.5595 -0.1697 -0.8112
vn -0.1697 -0.5595 -0.8112
vn -0.1697 0.5595 -0.8112
vn 0.4119 0.2085 -0.8870
vn -0.3810 -0.1267 -0.9159
vn 0.3810 -0.1267 -0.9159
vn -0.4119 0.2085 -0.8870
vn 0.0155 -0.0047 -0.9999
vn 0.0024 0.0007 -1.0000
vn 0.0074 -0.0007 -1.0000
vn 0.0025 0.0021 -1.0000
vn 0.0024 0.0013 -1.0000
vn 0.0020 0.0006 -1.0000
vn 0.0021 0.0025 -1.0000
vn -0.0000 0.0023 -1.0000
vn 0.0005 0.0015 -1.0000
vn -0.0000 0.0014 -1.0000
vn -0.0001 0.0013 -1.0000
vn -0.0008 0.0014 -1.0000
vn 0.0014 -0.0028 -1.0000
vn -0.0007 -0.0004 -1.0000
vn -0.0006 -0.0005 -1.0000
vn -0.0001 -0.0013 -1.0000
vn -0.0004 -0.0012 -1.0000
vn -0.0005 -0.0010 -1.0000
vn -0.0006 -0.0008 -1.0000
vt 0.121589 0.540971
vt 0.104219 0.500022
vt 0.121589 0.500022
vt 0.017370 0.684019
vt 0.000000 0.634771
vt 0.017370 0.634771
vt 0.121589 0.818768
vt 0.104219 0.777820
vt 0.121589 0.777820
vt 0.121589 0.586470
vt 0.104219 0.540971
vt 0.017370 0.732321
vt 0.000000 0.684019
vt 0.121589 0.853592
vt 0.104219 0.818768
vt 0.121589 0.634771
vt 0.104219 0.586470
vt 0.017370 0.777820
vt 0.000000 0.732321
vt 0.052110 0.540971
vt 0.034740 0.500022
vt 0.052110 0.500022
vt 0.017370 0.818768
vt 0.000000 0.777820
vt 0.052110 0.586470
vt 0.034740 0.540971
vt 0.017370 0.853592
vt 0.000000 0.818768
vt 0.052110 0.634771
vt 0.034740 0.586470
vt 0.086850 0.540971
vt 0.069480 0.500022
vt 0.086850 0.500022
vt 0.052110 0.684019
vt 0.034740 0.634771
vt 0.086850 0.586470
vt 0.069480 0.540971
vt 0.052110 0.732321
vt 0.034740 0.684019
vt 0.086850 0.634771
vt 0.069480 0.586470
vt 0.052110 0.777820
vt 0.034740 0.732321
vt 0.086849 0.684019
vt 0.069480 0.634771
vt 0.052110 0.818768
vt 0.034740 0.777820
vt 0.086849 0.732321
vt 0.069480 0.684019
vt 0.052110 0.853592
vt 0.034740 0.818768
vt 0.086849 0.777820
vt 0.069480 0.732321
vt 0.017370 0.540971
vt 0.000000 0.500022
vt 0.017370 0.500022
vt 0.121589 0.684019
vt 0.104219 0.634771
vt 0.086849 0.818768
vt 0.069480 0.777820
vt 0.017370 0.586470
vt 0.000000 0.540971
vt 0.121589 0.732321
vt 0.104219 0.684019
vt 0.086849 0.853592
vt 0.069480 0.818768
vt 0.000000 0.586470
vt 0.104219 0.732321
vt 0.500000 0.225387
vt 0.523946 0.272244
vt 0.500000 0.274635
vt 0.805607 0.423285
vt 0.758536 0.306321
vt 0.838618 0.415932
vt 0.804548 0.069963
vt 0.838621 0.084077
vt 0.838344 0.090916
vt 0.971546 0.368436
vt 0.925290 0.393996
vt 0.950011 0.356997
vt 0.990393 0.177086
vt 0.950013 0.142992
vt 0.971548 0.131587
vt 0.532627 0.184103
vt 0.523946 0.227746
vt 0.909364 0.444207
vt 0.944186 0.409384
vt 1.000000 0.225387
vt 0.967040 0.184103
vt 0.509608 0.177085
vt 0.549656 0.142992
vt 0.868417 0.471568
vt 0.893826 0.425461
vt 0.999999 0.274635
vt 0.975721 0.227746
vt 0.555814 0.090638
vt 0.528454 0.131586
vt 0.822920 0.490415
vt 0.856829 0.450182
vt 0.590636 0.055815
vt 0.574377 0.105993
vt 0.774620 0.500022
vt 0.815720 0.467211
vt 0.631583 0.028454
vt 0.605840 0.074529
vt 0.725375 0.500022
vt 0.772079 0.475892
vt 0.677080 0.009608
vt 0.642837 0.049807
vt 0.677075 0.490414
vt 0.727583 0.475892
vt 0.725379 0.000000
vt 0.683946 0.032778
vt 0.642834 0.450182
vt 0.683942 0.467211
vt 0.774625 0.000000
vt 0.727587 0.024097
vt 0.631579 0.471568
vt 0.605837 0.425461
vt 0.822924 0.009608
vt 0.772083 0.024097
vt 0.555811 0.409384
vt 0.590633 0.444207
vt 0.856833 0.049807
vt 0.815724 0.032778
vt 0.528452 0.368436
vt 0.574374 0.393996
vt 0.868421 0.028454
vt 0.893829 0.074529
vt 0.509607 0.322937
vt 0.549654 0.356997
vt 0.967039 0.315887
vt 0.975720 0.272244
vt 0.944189 0.090638
vt 0.909367 0.055815
vt 0.532626 0.315886
vt 0.990392 0.322937
vt 0.925293 0.105994
vt 0.945502 0.309353
vt 0.930162 0.346387
vt 0.907892 0.379717
vt 0.879548 0.408062
vt 0.846220 0.430333
vt 0.809187 0.445673
vt 0.769873 0.453493
vt 0.729789 0.453493
vt 0.690476 0.445673
vt 0.653443 0.430333
vt 0.620115 0.408062
vt 0.591772 0.379717
vt 0.569502 0.346387
vt 0.554163 0.309353
vt 0.546344 0.270037
vt 0.546344 0.229952
vt 0.554165 0.190636
vt 0.569504 0.153602
vt 0.591774 0.120272
vt 0.620118 0.091927
vt 0.653447 0.069657
vt 0.690479 0.054317
vt 0.729793 0.046496
vt 0.769877 0.046496
vt 0.809191 0.054317
vt 0.846223 0.069657
vt 0.879551 0.091927
vt 0.907895 0.120272
vt 0.930164 0.153602
vt 0.945503 0.190636
vt 0.953323 0.229952
vt 0.953322 0.270038
vt 0.929967 0.304620
vt 0.915853 0.338695
vt 0.895363 0.369362
vt 0.869284 0.395441
vt 0.804545 0.430047
vt 0.768372 0.437242
vt 0.731492 0.437242
vt 0.695319 0.430047
vt 0.661246 0.415932
vt 0.630581 0.395441
vt 0.604502 0.369361
vt 0.584013 0.338695
vt 0.569899 0.304620
vt 0.562705 0.268446
vt 0.562705 0.231563
vt 0.569901 0.195389
vt 0.584015 0.161314
vt 0.604505 0.130648
vt 0.630584 0.104568
vt 0.661249 0.084077
vt 0.695323 0.069963
vt 0.731495 0.062767
vt 0.768376 0.062767
vt 0.869287 0.104568
vt 0.895365 0.130648
vt 0.915855 0.161315
vt 0.929968 0.195390
vt 0.937163 0.231563
vt 0.937162 0.268446
vt 0.769358 0.196449
vt 0.843535 0.259224
vt 0.752660 0.201383
vt 0.640068 0.239183
vt 0.654631 0.191727
vt 0.649861 0.240148
vt 0.629246 0.349055
vt 0.784610 0.401316
vt 0.650890 0.129311
vt 0.813464 0.108366
vt 0.659400 0.143306
vt 0.859802 0.260826
vt 0.743121 0.298224
vt 0.645479 0.184247
vt 0.645092 0.288569
vt 0.634657 0.294119
vt 0.640323 0.336989
vt 0.138959 0.500022
vt 0.034740 0.634771
vt 0.138959 0.777820
vt 0.138959 0.540971
vt 0.034740 0.684019
vt 0.138959 0.818768
vt 0.138959 0.586470
vt 0.034740 0.732321
vt 0.069480 0.500022
vt 0.034740 0.777820
vt 0.069480 0.540971
vt 0.034740 0.818768
vt 0.069480 0.586470
vt 0.104219 0.500022
vt 0.069480 0.634771
vt 0.104219 0.540971
vt 0.069480 0.684019
vt 0.104219 0.586470
vt 0.069480 0.732321
vt 0.104219 0.634771
vt 0.069480 0.777820
vt 0.104219 0.684019
vt 0.069480 0.818768
vt 0.104219 0.732321
vt 0.034740 0.500022
vt 0.138959 0.634771
vt 0.104219 0.777820
vt 0.034740 0.540971
vt 0.138959 0.684019
vt 0.104219 0.818768
vt 0.034740 0.586470
vt 0.138959 0.732321
vt 0.467373 0.315919
vt 0.500000 0.274635
vt 0.490392 0.322937
vt 0.130713 0.395454
vt 0.104635 0.369374
vt 0.230642 0.303574
vt 0.304681 0.069976
vt 0.338754 0.084090
vt 0.370754 0.150967
vt 0.009607 0.322937
vt 0.049987 0.357030
vt 0.028452 0.368436
vt 0.074710 0.106026
vt 0.028454 0.131586
vt 0.055814 0.090638
vt 0.476054 0.227779
vt 0.500000 0.225387
vt 0.074707 0.394029
vt 0.055811 0.409384
vt 0.049989 0.143025
vt 0.009608 0.177085
vt 0.490393 0.177086
vt 0.090633 0.444207
vt 0.032961 0.184136
vt 0.000001 0.225387
vt 0.467374 0.184136
vt 0.471548 0.131587
vt 0.106170 0.425493
vt 0.131579 0.471568
vt 0.425626 0.106026
vt 0.444189 0.090638
vt 0.143167 0.450215
vt 0.177076 0.490414
vt 0.409367 0.055815
vt 0.227917 0.475925
vt 0.225375 0.500022
vt 0.394163 0.074562
vt 0.368421 0.028454
vt 0.274621 0.500022
vt 0.357166 0.049840
vt 0.322925 0.009608
vt 0.272413 0.475925
vt 0.322920 0.490414
vt 0.272417 0.024130
vt 0.274625 -0.000000
vt 0.357163 0.450215
vt 0.368417 0.471568
vt 0.225380 0.000000
vt 0.394160 0.425494
vt 0.409364 0.444207
vt 0.227921 0.024130
vt 0.177080 0.009608
vt 0.444186 0.409384
vt 0.184280 0.032811
vt 0.131583 0.028454
vt 0.425623 0.394029
vt 0.471546 0.368436
vt 0.024279 0.272276
vt 0.000000 0.274635
vt 0.106174 0.074562
vt 0.090636 0.055815
vt 0.450344 0.357030
vt 0.046677 0.270070
vt 0.024280 0.227779
vt 0.046678 0.229985
vt 0.032960 0.315919
vt 0.054497 0.309386
vt 0.069836 0.346420
vt 0.092105 0.379750
vt 0.120448 0.408095
vt 0.153777 0.430366
vt 0.184276 0.467244
vt 0.190809 0.445706
vt 0.230123 0.453526
vt 0.270207 0.453526
vt 0.309521 0.445706
vt 0.346553 0.430366
vt 0.379882 0.408095
vt 0.408226 0.379750
vt 0.430496 0.346420
vt 0.445835 0.309386
vt 0.476054 0.272277
vt 0.453656 0.270070
vt 0.453656 0.229985
vt 0.445837 0.190669
vt 0.450346 0.143025
vt 0.430497 0.153635
vt 0.408228 0.120305
vt 0.379885 0.091960
vt 0.346557 0.069690
vt 0.316058 0.032811
vt 0.309524 0.054349
vt 0.270211 0.046529
vt 0.230127 0.046529
vt 0.190813 0.054349
vt 0.143171 0.049840
vt 0.153780 0.069690
vt 0.120451 0.091960
vt 0.092108 0.120305
vt 0.069838 0.153635
vt 0.054498 0.190669
vt 0.062837 0.268459
vt 0.062838 0.231576
vt 0.070032 0.304633
vt 0.084145 0.338708
vt 0.161379 0.415945
vt 0.195452 0.430060
vt 0.231624 0.437255
vt 0.268505 0.437255
vt 0.304677 0.430060
vt 0.338751 0.415945
vt 0.369416 0.395454
vt 0.395495 0.369375
vt 0.415985 0.338708
vt 0.430099 0.304633
vt 0.437295 0.268459
vt 0.437295 0.231576
vt 0.430100 0.195403
vt 0.415987 0.161328
vt 0.395497 0.130661
vt 0.369419 0.104581
vt 0.268508 0.062780
vt 0.231628 0.062780
vt 0.195455 0.069976
vt 0.161382 0.084090
vt 0.130716 0.104581
vt 0.104637 0.130661
vt 0.084147 0.161327
vt 0.070033 0.195402
vt 0.241464 0.193701
vt 0.156464 0.240798
vt 0.140198 0.239196
vt 0.359932 0.260839
vt 0.354908 0.211454
vt 0.365343 0.205903
vt 0.186536 0.391656
vt 0.349110 0.370711
vt 0.161656 0.409106
vt 0.215390 0.098706
vt 0.194393 0.076737
vt 0.359677 0.163033
vt 0.345369 0.308295
vt 0.354521 0.315775
vt 0.340600 0.356716
vt 0.256879 0.201798
vt 0.350139 0.259874
vt 0.247340 0.298640
vt 0.104219 0.853592
vt -0.000000 0.853592
vt 0.034740 0.853592
vt 0.069480 0.853592
vt 0.138959 0.853592
vt 0.034740 0.853592
vt 0.069480 0.853592
vt 0.104219 0.853592
vt 0.316054 0.467244
s 0
usemtl Material
f 41/1/1 72/2/1 40/3/1
f 28/4/2 59/5/2 27/6/2
f 9/7/3 46/8/3 7/9/3
f 42/10/4 73/11/4 41/1/4
f 29/12/5 60/13/5 28/4/5
f 12/14/6 47/15/6 9/7/6
f 2/16/7 74/17/7 42/10/7
f 30/18/8 61/19/8 29/12/8
f 13/20/9 48/21/9 12/22/9
f 31/23/10 62/24/10 30/18/10
f 14/25/11 49/26/11 13/20/11
f 32/27/12 63/28/12 31/23/12
f 15/29/13 50/30/13 14/25/13
f 33/31/14 64/32/14 32/33/14
f 16/34/15 51/35/15 15/29/15
f 34/36/16 65/37/16 33/31/16
f 17/38/17 52/39/17 16/34/17
f 35/40/18 66/41/18 34/36/18
f 18/42/19 53/43/19 17/38/19
f 36/44/20 67/45/20 35/40/20
f 20/46/21 54/47/21 18/42/21
f 37/48/22 68/49/22 36/44/22
f 22/50/23 55/51/23 20/46/23
f 38/52/24 69/53/24 37/48/24
f 23/54/25 56/55/25 22/56/25
f 4/57/26 43/58/26 2/16/26
f 39/59/27 70/60/27 38/52/27
f 26/61/28 57/62/28 23/54/28
f 6/63/29 44/64/29 4/57/29
f 40/65/30 71/66/30 39/59/30
f 27/6/31 58/67/31 26/61/31
f 7/9/32 45/68/32 6/63/32
f 59/69/33 122/70/33 58/71/33
f 5/72/34 11/73/34 80/74/34
f 100/75/35 101/76/35 21/77/35
f 45/78/36 110/79/36 109/80/36
f 73/81/37 136/82/37 72/83/37
f 59/69/38 124/84/38 123/85/38
f 47/86/39 110/79/39 46/87/39
f 74/88/40 137/89/40 73/81/40
f 60/90/41 125/91/41 124/84/41
f 48/92/42 111/93/42 47/86/42
f 43/94/43 138/95/43 74/88/43
f 62/96/44 125/91/44 61/97/44
f 49/98/45 112/99/45 48/92/45
f 63/100/46 126/101/46 62/96/46
f 50/102/47 113/103/47 49/98/47
f 64/104/48 127/105/48 63/100/48
f 51/106/49 114/107/49 50/102/49
f 65/108/50 128/109/50 64/104/50
f 52/110/51 115/111/51 51/106/51
f 66/112/52 129/113/52 65/108/52
f 52/110/53 117/114/53 116/115/53
f 67/116/54 130/117/54 66/112/54
f 53/118/55 118/119/55 117/114/55
f 68/120/56 131/121/56 67/116/56
f 55/122/57 118/119/57 54/123/57
f 68/120/58 133/124/58 132/125/58
f 56/126/59 119/127/59 55/122/59
f 69/128/60 134/129/60 133/124/60
f 57/130/61 120/131/61 56/126/61
f 43/94/62 107/132/62 108/133/62
f 71/134/63 134/129/63 70/135/63
f 58/71/64 121/136/64 57/130/64
f 44/137/65 109/80/65 107/132/65
f 72/83/66 135/138/66 71/134/66
f 139/139/67 108/133/67 107/132/67
f 139/139/67 109/80/67 141/140/67
f 141/140/67 110/79/67 142/141/67
f 142/141/67 111/93/67 143/142/67
f 144/143/67 111/93/67 112/99/67
f 144/143/67 113/103/67 145/144/67
f 145/144/67 114/107/67 146/145/67
f 146/145/67 115/111/67 147/146/67
f 148/147/67 115/111/67 116/115/67
f 149/148/67 116/115/67 117/114/67
f 149/148/67 118/119/67 150/149/67
f 150/149/67 119/127/67 151/150/67
f 151/150/67 120/131/67 152/151/67
f 152/151/67 121/136/67 153/152/67
f 153/152/67 122/70/67 154/153/67
f 154/153/67 123/85/67 155/154/67
f 156/155/67 123/85/67 124/84/67
f 156/155/67 125/91/67 157/156/67
f 157/156/67 126/101/67 158/157/67
f 158/157/67 127/105/67 159/158/67
f 159/158/67 128/109/67 160/159/67
f 160/159/67 129/113/67 161/160/67
f 161/160/67 130/117/67 162/161/67
f 162/161/67 131/121/67 163/162/67
f 163/162/67 132/125/67 164/163/67
f 165/164/67 132/125/67 133/124/67
f 165/164/67 134/129/67 166/165/67
f 166/165/67 135/138/67 167/166/67
f 167/166/67 136/82/67 168/167/67
f 168/167/67 137/89/67 169/168/67
f 169/168/67 138/95/67 170/169/67
f 170/169/67 108/133/67 140/170/67
f 75/171/68 140/170/68 139/139/68
f 75/171/69 141/140/69 77/172/69
f 77/172/70 142/141/70 78/173/70
f 78/173/71 143/142/71 79/174/71
f 80/74/72 143/142/72 144/143/72
f 81/175/73 144/143/73 145/144/73
f 82/176/74 145/144/74 146/145/74
f 83/177/75 146/145/75 147/146/75
f 84/178/76 147/146/76 148/147/76
f 84/178/77 149/148/77 85/179/77
f 85/179/78 150/149/78 86/180/78
f 86/180/79 151/150/79 87/181/79
f 88/182/80 151/150/80 152/151/80
f 88/182/81 153/152/81 89/183/81
f 90/184/82 153/152/82 154/153/82
f 90/184/83 155/154/83 91/185/83
f 92/186/84 155/154/84 156/155/84
f 92/186/85 157/156/85 93/187/85
f 93/187/86 158/157/86 94/188/86
f 94/188/87 159/158/87 95/189/87
f 96/190/88 159/158/88 160/159/88
f 96/190/89 161/160/89 97/191/89
f 97/191/90 162/161/90 98/192/90
f 98/192/91 163/162/91 99/193/91
f 99/193/92 164/163/92 100/75/92
f 100/75/93 165/164/93 101/76/93
f 101/76/94 166/165/94 102/194/94
f 102/194/95 167/166/95 103/195/95
f 104/196/96 167/166/96 168/167/96
f 104/196/97 169/168/97 105/197/97
f 105/197/98 170/169/98 106/198/98
f 106/198/99 140/170/99 76/199/99
f 25/200/100 178/201/100 171/202/100
f 177/203/101 172/204/101 179/205/101
f 1/206/102 173/207/102 5/72/102
f 19/208/103 3/209/103 10/210/103
f 11/73/104 178/201/104 8/211/104
f 11/73/105 173/207/105 176/212/105
f 24/213/101 10/210/101 172/204/101
f 25/200/106 3/209/106 21/77/106
f 177/203/101 180/214/101 175/215/101
f 175/215/101 174/216/101 1/206/101
f 10/210/67 171/202/67 172/204/67
f 171/202/67 179/205/67 172/204/67
f 174/216/67 176/212/67 173/207/67
f 179/205/67 176/212/67 180/214/67
f 86/180/107 87/181/107 1/206/107
f 88/182/108 89/183/108 175/215/108
f 90/184/109 91/185/109 177/203/109
f 92/186/110 93/187/110 24/213/110
f 94/188/111 95/189/111 19/208/111
f 25/200/112 21/77/112 102/194/112
f 220/217/1 41/1/1 40/3/1
f 207/218/2 28/4/2 27/6/2
f 194/219/3 9/7/3 7/9/3
f 221/220/4 42/10/4 41/1/4
f 208/221/5 29/12/5 28/4/5
f 195/222/6 12/14/6 9/7/6
f 222/223/7 2/16/7 42/10/7
f 209/224/8 30/18/8 29/12/8
f 196/225/9 13/20/9 12/22/9
f 210/226/10 31/23/10 30/18/10
f 197/227/11 14/25/11 13/20/11
f 211/228/12 32/27/12 31/23/12
f 198/229/13 15/29/13 14/25/13
f 212/230/14 33/31/14 32/33/14
f 199/231/15 16/34/15 15/29/15
f 213/232/16 34/36/16 33/31/16
f 200/233/17 17/38/17 16/34/17
f 214/234/18 35/40/18 34/36/18
f 201/235/19 18/42/19 17/38/19
f 215/236/20 36/44/20 35/40/20
f 202/237/21 20/46/21 18/42/21
f 216/238/22 37/48/22 36/44/22
f 203/239/23 22/50/23 20/46/23
f 217/240/24 38/52/24 37/48/24
f 204/241/25 23/54/25 22/56/25
f 191/242/26 4/57/26 2/16/26
f 218/243/27 39/59/27 38/52/27
f 205/244/28 26/61/28 23/54/28
f 192/245/29 6/63/29 4/57/29
f 219/246/30 40/65/30 39/59/30
f 206/247/31 27/6/31 26/61/31
f 193/248/32 7/9/32 6/63/32
f 270/249/113 207/250/113 206/251/113
f 228/252/114 227/253/114 186/254/114
f 246/255/115 245/256/115 187/257/115
f 193/258/116 258/259/116 194/260/116
f 284/261/117 221/262/117 220/263/117
f 207/250/118 272/264/118 208/265/118
f 194/260/119 259/266/119 195/267/119
f 285/268/120 222/269/120 221/262/120
f 272/264/121 209/270/121 208/265/121
f 259/266/122 196/271/122 195/267/122
f 286/272/123 191/273/123 222/269/123
f 273/274/124 210/275/124 209/270/124
f 260/276/125 197/277/125 196/271/125
f 210/275/126 275/278/126 211/279/126
f 261/280/127 198/281/127 197/277/127
f 275/278/128 212/282/128 211/279/128
f 198/281/129 263/283/129 199/284/129
f 276/285/130 213/286/130 212/282/130
f 263/283/131 200/287/131 199/284/131
f 277/288/132 214/289/132 213/286/132
f 264/290/133 201/291/133 200/287/133
f 214/289/134 279/292/134 215/293/134
f 201/291/135 266/294/135 202/295/135
f 279/292/136 216/296/136 215/293/136
f 202/295/137 267/297/137 203/298/137
f 280/299/138 217/300/138 216/296/138
f 267/297/139 204/301/139 203/298/139
f 281/302/140 218/303/140 217/300/140
f 268/304/141 205/305/141 204/301/141
f 191/273/142 255/306/142 192/307/142
f 218/303/143 283/308/143 219/309/143
f 269/310/144 206/251/144 205/305/144
f 255/306/145 193/258/145 192/307/145
f 283/308/146 220/263/146 219/309/146
f 287/311/147 256/312/147 288/313/147
f 257/314/147 287/311/147 289/315/147
f 258/259/147 289/315/147 290/316/147
f 259/266/147 290/316/147 291/317/147
f 292/318/147 259/266/147 291/317/147
f 261/280/147 292/318/147 293/319/147
f 262/320/147 293/319/147 294/321/147
f 263/283/147 294/321/147 295/322/147
f 296/323/147 263/283/147 295/322/147
f 297/324/147 264/290/147 296/323/147
f 266/294/147 297/324/147 298/325/147
f 267/297/147 298/325/147 299/326/147
f 268/304/147 299/326/147 300/327/147
f 301/328/147 268/304/147 300/327/147
f 270/249/147 301/328/147 302/329/147
f 271/330/147 302/329/147 303/331/147
f 304/332/147 271/330/147 303/331/147
f 273/274/147 304/332/147 305/333/147
f 274/334/147 305/333/147 306/335/147
f 275/278/147 306/335/147 307/336/147
f 276/285/147 307/336/147 308/337/147
f 277/288/147 308/337/147 309/338/147
f 278/339/147 309/338/147 310/340/147
f 279/292/147 310/340/147 311/341/147
f 280/299/147 311/341/147 312/342/147
f 281/302/147 312/342/147 313/343/147
f 282/344/147 313/343/147 314/345/147
f 283/308/147 314/345/147 315/346/147
f 284/261/147 315/346/147 316/347/147
f 317/348/147 284/261/147 316/347/147
f 286/272/147 317/348/147 318/349/147
f 256/312/147 318/349/147 288/313/147
f 223/350/148 288/313/148 224/351/148
f 289/315/149 223/350/149 225/352/149
f 290/316/150 225/352/150 226/353/150
f 291/317/151 226/353/151 227/253/151
f 228/252/152 291/317/152 227/253/152
f 229/354/153 292/318/153 228/252/153
f 230/355/154 293/319/154 229/354/154
f 231/356/155 294/321/155 230/355/155
f 232/357/156 295/322/156 231/356/156
f 297/324/157 232/357/157 233/358/157
f 298/325/158 233/358/158 234/359/158
f 299/326/159 234/359/159 235/360/159
f 236/361/160 299/326/160 235/360/160
f 301/328/161 236/361/161 237/362/161
f 238/363/162 301/328/162 237/362/162
f 303/331/163 238/363/163 239/364/163
f 240/365/164 303/331/164 239/364/164
f 305/333/165 240/365/165 241/366/165
f 306/335/166 241/366/166 242/367/166
f 307/336/167 242/367/167 243/368/167
f 244/369/168 307/336/168 243/368/168
f 309/338/169 244/369/169 245/256/169
f 246/255/170 309/338/170 245/256/170
f 311/341/171 246/255/171 247/370/171
f 312/342/172 247/370/172 248/371/172
f 313/343/173 248/371/173 249/372/173
f 314/345/174 249/372/174 250/373/174
f 315/346/175 250/373/175 251/374/175
f 252/375/176 315/346/176 251/374/176
f 317/348/177 252/375/177 253/376/177
f 318/349/178 253/376/178 254/377/178
f 288/313/179 254/377/179 224/351/179
f 190/378/180 326/379/180 184/380/180
f 325/381/181 320/382/181 189/383/181
f 321/384/182 181/385/182 183/386/182
f 187/257/183 182/387/183 188/388/183
f 326/379/184 186/254/184 184/380/184
f 186/254/185 321/384/185 183/386/185
f 189/383/181 185/389/181 187/257/181
f 182/387/186 190/378/186 188/388/186
f 328/390/181 325/381/181 323/391/181
f 322/392/181 323/391/181 181/385/181
f 185/389/147 319/393/147 182/387/147
f 327/394/147 319/393/147 320/382/147
f 322/392/147 324/395/147 328/390/147
f 324/395/147 327/394/147 328/390/147
f 232/357/187 231/356/187 181/385/187
f 323/391/188 237/362/188 236/361/188
f 325/381/189 239/364/189 238/363/189
f 189/383/190 241/366/190 240/365/190
f 187/257/191 243/368/191 242/367/191
f 250/373/192 249/372/192 188/388/192
f 41/1/1 73/11/1 72/2/1
f 28/4/2 60/13/2 59/5/2
f 9/7/3 47/15/3 46/8/3
f 42/10/4 74/17/4 73/11/4
f 29/12/5 61/19/5 60/13/5
f 12/14/6 48/396/6 47/15/6
f 2/16/7 43/58/7 74/17/7
f 30/18/8 62/24/8 61/19/8
f 13/20/9 49/26/9 48/21/9
f 31/23/10 63/28/10 62/24/10
f 14/25/11 50/30/11 49/26/11
f 32/27/12 64/397/12 63/28/12
f 15/29/13 51/35/13 50/30/13
f 33/31/14 65/37/14 64/32/14
f 16/34/15 52/39/15 51/35/15
f 34/36/16 66/41/16 65/37/16
f 17/38/17 53/43/17 52/39/17
f 35/40/18 67/45/18 66/41/18
f 18/42/19 54/47/19 53/43/19
f 36/44/20 68/49/20 67/45/20
f 20/46/21 55/51/21 54/47/21
f 37/48/22 69/53/22 68/49/22
f 22/50/23 56/398/23 55/51/23
f 38/52/24 70/60/24 69/53/24
f 23/54/25 57/62/25 56/55/25
f 4/57/26 44/64/26 43/58/26
f 39/59/27 71/66/27 70/60/27
f 26/61/28 58/67/28 57/62/28
f 6/63/29 45/68/29 44/64/29
f 40/65/30 72/399/30 71/66/30
f 27/6/31 59/5/31 58/67/31
f 7/9/32 46/8/32 45/68/32
f 59/69/33 123/85/33 122/70/33
f 11/73/193 8/211/193 79/174/193
f 8/211/194 76/199/194 75/171/194
f 79/174/195 8/211/195 78/173/195
f 75/171/196 77/172/196 8/211/196
f 77/172/197 78/173/197 8/211/197
f 79/174/198 80/74/198 11/73/198
f 80/74/199 81/175/199 5/72/199
f 21/77/200 19/208/200 99/193/200
f 19/208/201 95/189/201 96/190/201
f 99/193/202 19/208/202 98/192/202
f 96/190/203 97/191/203 19/208/203
f 97/191/204 98/192/204 19/208/204
f 99/193/205 100/75/205 21/77/205
f 45/78/36 46/87/36 110/79/36
f 73/81/37 137/89/37 136/82/37
f 59/69/38 60/90/38 124/84/38
f 47/86/39 111/93/39 110/79/39
f 74/88/206 138/95/206 137/89/206
f 60/90/207 61/97/207 125/91/207
f 48/92/42 112/99/42 111/93/42
f 43/94/43 108/133/43 138/95/43
f 62/96/44 126/101/44 125/91/44
f 49/98/45 113/103/45 112/99/45
f 63/100/46 127/105/46 126/101/46
f 50/102/47 114/107/47 113/103/47
f 64/104/48 128/109/48 127/105/48
f 51/106/49 115/111/49 114/107/49
f 65/108/50 129/113/50 128/109/50
f 52/110/51 116/115/51 115/111/51
f 66/112/208 130/117/208 129/113/208
f 52/110/209 53/118/209 117/114/209
f 67/116/54 131/121/54 130/117/54
f 53/118/55 54/123/55 118/119/55
f 68/120/56 132/125/56 131/121/56
f 55/122/57 119/127/57 118/119/57
f 68/120/58 69/128/58 133/124/58
f 56/126/59 120/131/59 119/127/59
f 69/128/60 70/135/60 134/129/60
f 57/130/61 121/136/61 120/131/61
f 43/94/62 44/137/62 107/132/62
f 71/134/63 135/138/63 134/129/63
f 58/71/210 122/70/210 121/136/210
f 44/137/211 45/78/211 109/80/211
f 72/83/66 136/82/66 135/138/66
f 139/139/67 140/170/67 108/133/67
f 139/139/67 107/132/67 109/80/67
f 141/140/67 109/80/67 110/79/67
f 142/141/67 110/79/67 111/93/67
f 144/143/67 143/142/67 111/93/67
f 144/143/67 112/99/67 113/103/67
f 145/144/67 113/103/67 114/107/67
f 146/145/67 114/107/67 115/111/67
f 148/147/67 147/146/67 115/111/67
f 149/148/67 148/147/67 116/115/67
f 149/148/67 117/114/67 118/119/67
f 150/149/67 118/119/67 119/127/67
f 151/150/67 119/127/67 120/131/67
f 152/151/67 120/131/67 121/136/67
f 153/152/67 121/136/67 122/70/67
f 154/153/67 122/70/67 123/85/67
f 156/155/67 155/154/67 123/85/67
f 156/155/67 124/84/67 125/91/67
f 157/156/67 125/91/67 126/101/67
f 158/157/67 126/101/67 127/105/67
f 159/158/67 127/105/67 128/109/67
f 160/159/67 128/109/67 129/113/67
f 161/160/67 129/113/67 130/117/67
f 162/161/67 130/117/67 131/121/67
f 163/162/67 131/121/67 132/125/67
f 165/164/67 164/163/67 132/125/67
f 165/164/67 133/124/67 134/129/67
f 166/165/67 134/129/67 135/138/67
f 167/166/67 135/138/67 136/82/67
f 168/167/67 136/82/67 137/89/67
f 169/168/67 137/89/67 138/95/67
f 170/169/67 138/95/67 108/133/67
f 75/171/68 76/199/68 140/170/68
f 75/171/69 139/139/69 141/140/69
f 77/172/70 141/140/70 142/141/70
f 78/173/71 142/141/71 143/142/71
f 80/74/72 79/174/72 143/142/72
f 81/175/73 80/74/73 144/143/73
f 82/176/74 81/175/74 145/144/74
f 83/177/75 82/176/75 146/145/75
f 84/178/76 83/177/76 147/146/76
f 84/178/77 148/147/77 149/148/77
f 85/179/78 149/148/78 150/149/78
f 86/180/79 150/149/79 151/150/79
f 88/182/80 87/181/80 151/150/80
f 88/182/81 152/151/81 153/152/81
f 90/184/82 89/183/82 153/152/82
f 90/184/83 154/153/83 155/154/83
f 92/186/84 91/185/84 155/154/84
f 92/186/85 156/155/85 157/156/85
f 93/187/86 157/156/86 158/157/86
f 94/188/87 158/157/87 159/158/87
f 96/190/88 95/189/88 159/158/88
f 96/190/89 160/159/89 161/160/89
f 97/191/90 161/160/90 162/161/90
f 98/192/91 162/161/91 163/162/91
f 99/193/92 163/162/92 164/163/92
f 100/75/93 164/163/93 165/164/93
f 101/76/94 165/164/94 166/165/94
f 102/194/95 166/165/95 167/166/95
f 104/196/96 103/195/96 167/166/96
f 104/196/97 168/167/97 169/168/97
f 105/197/98 169/168/98 170/169/98
f 106/198/99 170/169/99 140/170/99
f 25/200/212 8/211/212 178/201/212
f 177/203/101 24/213/101 172/204/101
f 1/206/213 174/216/213 173/207/213
f 19/208/214 21/77/214 3/209/214
f 11/73/215 176/212/215 178/201/215
f 11/73/105 5/72/105 173/207/105
f 24/213/101 19/208/101 10/210/101
f 25/200/106 171/202/106 3/209/106
f 177/203/101 179/205/101 180/214/101
f 175/215/101 180/214/101 174/216/101
f 10/210/67 3/209/67 171/202/67
f 171/202/67 178/201/67 179/205/67
f 174/216/67 180/214/67 176/212/67
f 179/205/67 178/201/67 176/212/67
f 1/206/216 5/72/216 83/177/216
f 5/72/217 81/175/217 82/176/217
f 83/177/218 5/72/218 82/176/218
f 83/177/219 84/178/219 1/206/219
f 84/178/220 85/179/220 1/206/220
f 85/179/221 86/180/221 1/206/221
f 175/215/222 1/206/222 88/182/222
f 1/206/223 87/181/223 88/182/223
f 177/203/224 175/215/224 90/184/224
f 175/215/225 89/183/225 90/184/225
f 24/213/224 177/203/224 92/186/224
f 177/203/226 91/185/226 92/186/226
f 19/208/222 24/213/222 94/188/222
f 24/213/227 93/187/227 94/188/227
f 21/77/228 101/76/228 102/194/228
f 102/194/229 103/195/229 25/200/229
f 103/195/230 104/196/230 8/211/230
f 25/200/231 103/195/231 8/211/231
f 104/196/232 105/197/232 8/211/232
f 105/197/233 106/198/233 8/211/233
f 106/198/234 76/199/234 8/211/234
f 220/217/1 221/220/1 41/1/1
f 207/218/2 208/221/2 28/4/2
f 194/219/3 195/222/3 9/7/3
f 221/220/4 222/223/4 42/10/4
f 208/221/5 209/224/5 29/12/5
f 195/222/6 196/400/6 12/14/6
f 222/223/7 191/242/7 2/16/7
f 209/224/8 210/226/8 30/18/8
f 196/225/9 197/227/9 13/20/9
f 210/226/10 211/228/10 31/23/10
f 197/227/11 198/229/11 14/25/11
f 211/228/12 212/401/12 32/27/12
f 198/229/13 199/231/13 15/29/13
f 212/230/14 213/232/14 33/31/14
f 199/231/15 200/233/15 16/34/15
f 213/232/16 214/234/16 34/36/16
f 200/233/17 201/235/17 17/38/17
f 214/234/18 215/236/18 35/40/18
f 201/235/19 202/237/19 18/42/19
f 215/236/20 216/238/20 36/44/20
f 202/237/21 203/239/21 20/46/21
f 216/238/22 217/240/22 37/48/22
f 203/239/23 204/402/23 22/50/23
f 217/240/24 218/243/24 38/52/24
f 204/241/25 205/244/25 23/54/25
f 191/242/26 192/245/26 4/57/26
f 218/243/27 219/246/27 39/59/27
f 205/244/28 206/247/28 26/61/28
f 192/245/29 193/248/29 6/63/29
f 219/246/30 220/403/30 40/65/30
f 206/247/31 207/218/31 27/6/31
f 193/248/32 194/219/32 7/9/32
f 270/249/113 271/330/113 207/250/113
f 224/351/235 184/380/235 223/350/235
f 184/380/236 186/254/236 227/253/236
f 225/352/237 184/380/237 226/353/237
f 183/386/238 229/354/238 228/252/238
f 184/380/239 225/352/239 223/350/239
f 186/254/240 183/386/240 228/252/240
f 184/380/241 227/253/241 226/353/241
f 243/368/242 187/257/242 244/369/242
f 187/257/243 188/388/243 247/370/243
f 244/369/244 187/257/244 245/256/244
f 188/388/245 249/372/245 248/371/245
f 248/371/246 247/370/246 188/388/246
f 247/370/247 246/255/247 187/257/247
f 193/258/116 257/314/116 258/259/116
f 284/261/117 285/268/117 221/262/117
f 207/250/118 271/330/118 272/264/118
f 194/260/119 258/259/119 259/266/119
f 285/268/248 286/272/248 222/269/248
f 272/264/249 273/274/249 209/270/249
f 259/266/122 260/276/122 196/271/122
f 286/272/123 256/312/123 191/273/123
f 273/274/124 274/334/124 210/275/124
f 260/276/125 261/280/125 197/277/125
f 210/275/126 274/334/126 275/278/126
f 261/280/127 262/320/127 198/281/127
f 275/278/128 276/285/128 212/282/128
f 198/281/129 262/320/129 263/283/129
f 276/285/130 277/288/130 213/286/130
f 263/283/131 264/290/131 200/287/131
f 277/288/250 278/339/250 214/289/250
f 264/290/133 265/404/133 201/291/133
f 214/289/134 278/339/134 279/292/134
f 201/291/135 265/404/135 266/294/135
f 279/292/136 280/299/136 216/296/136
f 202/295/137 266/294/137 267/297/137
f 280/299/138 281/302/138 217/300/138
f 267/297/139 268/304/139 204/301/139
f 281/302/140 282/344/140 218/303/140
f 268/304/141 269/310/141 205/305/141
f 191/273/142 256/312/142 255/306/142
f 218/303/143 282/344/143 283/308/143
f 269/310/251 270/249/251 206/251/251
f 255/306/252 257/314/252 193/258/252
f 283/308/146 284/261/146 220/263/146
f 287/311/147 255/306/147 256/312/147
f 257/314/147 255/306/147 287/311/147
f 258/259/147 257/314/147 289/315/147
f 259/266/147 258/259/147 290/316/147
f 292/318/147 260/276/147 259/266/147
f 261/280/147 260/276/147 292/318/147
f 262/320/147 261/280/147 293/319/147
f 263/283/147 262/320/147 294/321/147
f 296/323/147 264/290/147 263/283/147
f 297/324/147 265/404/147 264/290/147
f 266/294/147 265/404/147 297/324/147
f 267/297/147 266/294/147 298/325/147
f 268/304/147 267/297/147 299/326/147
f 301/328/147 269/310/147 268/304/147
f 270/249/147 269/310/147 301/328/147
f 271/330/147 270/249/147 302/329/147
f 304/332/147 272/264/147 271/330/147
f 273/274/147 272/264/147 304/332/147
f 274/334/147 273/274/147 305/333/147
f 275/278/147 274/334/147 306/335/147
f 276/285/147 275/278/147 307/336/147
f 277/288/147 276/285/147 308/337/147
f 278/339/147 277/288/147 309/338/147
f 279/292/147 278/339/147 310/340/147
f 280/299/147 279/292/147 311/341/147
f 281/302/147 280/299/147 312/342/147
f 282/344/147 281/302/147 313/343/147
f 283/308/147 282/344/147 314/345/147
f 284/261/147 283/308/147 315/346/147
f 317/348/147 285/268/147 284/261/147
f 286/272/147 285/268/147 317/348/147
f 256/312/147 286/272/147 318/349/147
f 223/350/148 287/311/148 288/313/148
f 289/315/149 287/311/149 223/350/149
f 290/316/150 289/315/150 225/352/150
f 291/317/151 290/316/151 226/353/151
f 228/252/152 292/318/152 291/317/152
f 229/354/153 293/319/153 292/318/153
f 230/355/154 294/321/154 293/319/154
f 231/356/155 295/322/155 294/321/155
f 232/357/156 296/323/156 295/322/156
f 297/324/157 296/323/157 232/357/157
f 298/325/158 297/324/158 233/358/158
f 299/326/159 298/325/159 234/359/159
f 236/361/160 300/327/160 299/326/160
f 301/328/161 300/327/161 236/361/161
f 238/363/162 302/329/162 301/328/162
f 303/331/163 302/329/163 238/363/163
f 240/365/164 304/332/164 303/331/164
f 305/333/165 304/332/165 240/365/165
f 306/335/166 305/333/166 241/366/166
f 307/336/167 306/335/167 242/367/167
f 244/369/168 308/337/168 307/336/168
f 309/338/169 308/337/169 244/369/169
f 246/255/170 310/340/170 309/338/170
f 311/341/171 310/340/171 246/255/171
f 312/342/172 311/341/172 247/370/172
f 313/343/173 312/342/173 248/371/173
f 314/345/174 313/343/174 249/372/174
f 315/346/175 314/345/175 250/373/175
f 252/375/176 316/347/176 315/346/176
f 317/348/177 316/347/177 252/375/177
f 318/349/178 317/348/178 253/376/178
f 288/313/179 318/349/179 254/377/179
f 190/378/253 319/393/253 326/379/253
f 325/381/181 327/394/181 320/382/181
f 321/384/254 322/392/254 181/385/254
f 187/257/255 185/389/255 182/387/255
f 326/379/256 324/395/256 186/254/256
f 186/254/185 324/395/185 321/384/185
f 189/383/181 320/382/181 185/389/181
f 182/387/186 319/393/186 190/378/186
f 328/390/181 327/394/181 325/381/181
f 322/392/181 328/390/181 323/391/181
f 185/389/147 320/382/147 319/393/147
f 327/394/147 326/379/147 319/393/147
f 322/392/147 321/384/147 324/395/147
f 324/395/147 326/379/147 327/394/147
f 229/354/257 183/386/257 230/355/257
f 183/386/258 181/385/258 231/356/258
f 230/355/259 183/386/259 231/356/259
f 181/385/260 235/360/260 234/359/260
f 234/359/261 233/358/261 181/385/261
f 233/358/262 232/357/262 181/385/262
f 235/360/263 181/385/263 236/361/263
f 181/385/264 323/391/264 236/361/264
f 237/362/265 323/391/265 238/363/265
f 323/391/266 325/381/266 238/363/266
f 239/364/267 325/381/267 240/365/267
f 325/381/266 189/383/266 240/365/266
f 241/366/268 189/383/268 242/367/268
f 189/383/264 187/257/264 242/367/264
f 188/388/269 190/378/269 250/373/269
f 190/378/270 184/380/270 251/374/270
f 250/373/271 190/378/271 251/374/271
f 184/380/272 224/351/272 254/377/272
f 254/377/273 253/376/273 184/380/273
f 253/376/274 252/375/274 184/380/274
f 252/375/275 251/374/275 184/380/275
