g the_key
v -0.010732 0.375870 0.008917
v 0.032470 0.488735 0.016825
v 0.048292 0.454810 0.019740
v 0.097917 0.486302 0.016825
v 0.063615 0.520226 0.016825
v 0.129062 0.517794 0.016825
v 0.094760 0.551718 0.016825
v 0.160208 0.549286 0.016825
v 0.125906 0.583210 0.016825
v 0.160319 0.646498 0.016825
v 0.125795 0.612800 0.016825
v 0.129174 0.678407 0.016825
v 0.094649 0.644708 0.016825
v 0.098028 0.710315 0.016825
v 0.063504 0.676617 0.016825
v 0.066883 0.742224 0.016825
v 0.032359 0.708526 0.016825
v -0.011341 0.454810 0.019740
v 0.004481 0.488735 0.016825
v -0.060966 0.486302 0.016825
v -0.026664 0.520226 0.016825
v -0.092111 0.517794 0.016825
v -0.057809 0.551718 0.016825
v -0.123256 0.549286 0.016825
v -0.088954 0.583210 0.016825
v -0.123368 0.646498 0.016825
v -0.088843 0.612800 0.016825
v -0.092222 0.678407 0.016825
v -0.057698 0.644708 0.016825
v -0.061077 0.710315 0.016825
v -0.026553 0.676617 0.016825
v -0.029932 0.742224 0.016825
v 0.004592 0.708526 0.016825
v 0.033100 0.238549 0.019740
v 0.033100 0.130178 0.019740
v 0.033100 0.102455 0.019740
v 0.033100 0.427567 0.019740
v 0.003851 0.427567 0.019740
v 0.003851 0.102455 0.019740
v 0.003851 0.238549 0.019740
v 0.003851 0.130178 0.019740
v -0.119844 0.238549 0.018150
v -0.119844 0.130178 0.018150
v -0.086791 0.130178 0.018150
v -0.068965 0.130178 0.018150
v -0.068965 0.238549 0.018150
v -0.086791 0.238549 0.018150
v 0.033100 0.141083 0.019740
v 0.033100 0.185736 0.019740
v 0.003851 0.185736 0.019740
v 0.003851 0.141083 0.019740
v -0.119844 0.185736 0.018150
v -0.119844 0.141083 0.018150
v -0.068965 0.185736 0.018150
v -0.068965 0.141083 0.018150
v -0.086791 0.185736 0.018150
v -0.086791 0.141083 0.018150
v 0.033100 0.155967 0.019740
v 0.033100 0.170852 0.019740
v 0.003851 0.170852 0.019740
v 0.003851 0.155967 0.019740
v -0.119844 0.170852 0.018150
v -0.119844 0.155967 0.018150
v -0.068965 0.170852 0.018150
v -0.068965 0.155967 0.018150
v -0.086791 0.170852 0.018150
v -0.086791 0.155967 0.018150
v -0.110830 0.238549 0.018150
v -0.110830 0.130178 0.018150
v -0.110830 0.141083 0.018150
v -0.110830 0.185736 0.018150
v -0.110830 0.155967 0.018150
v -0.110830 0.170852 0.018150
v 0.003851 0.334512 0.019740
v 0.033100 0.334512 0.019740
v 0.125906 0.583210 -0.018466
v -0.010732 0.386209 0.008917
v 0.097917 0.486302 -0.018466
v 0.048292 0.454810 -0.021699
v 0.063615 0.520226 -0.018466
v 0.129062 0.517794 -0.018466
v 0.094760 0.551718 -0.018466
v 0.160208 0.549286 -0.018466
v 0.004592 0.708526 -0.018466
v 0.032359 0.708526 -0.018466
v 0.160319 0.646498 -0.018466
v 0.125795 0.612800 -0.018466
v 0.129174 0.678407 -0.018466
v 0.094649 0.644708 -0.018466
v 0.098028 0.710315 -0.018466
v 0.063504 0.676617 -0.018466
v 0.066883 0.742224 -0.018466
v -0.060966 0.486302 -0.018466
v -0.026664 0.520226 -0.018466
v -0.092111 0.517794 -0.018466
v -0.057809 0.551718 -0.018466
v -0.123256 0.549286 -0.018466
v -0.088954 0.583210 -0.018466
v -0.088843 0.612800 -0.018466
v -0.123368 0.646498 -0.018466
v -0.092222 0.678407 -0.018466
v -0.057698 0.644708 -0.018466
v -0.061077 0.710315 -0.018466
v -0.026553 0.676617 -0.018466
v -0.029932 0.742224 -0.018466
v 0.003851 0.334512 -0.021699
v 0.003851 0.238549 -0.021699
v 0.033100 0.185736 -0.021699
v 0.033100 0.238549 -0.021699
v 0.033100 0.102455 -0.021699
v 0.033100 0.130178 -0.021699
v 0.033100 0.334512 -0.021699
v 0.033100 0.427567 -0.021699
v 0.003851 0.130178 -0.021699
v 0.003851 0.102455 -0.021699
v 0.003851 0.427567 -0.021699
v 0.003851 0.141083 -0.021699
v -0.119844 0.141083 -0.019789
v -0.119844 0.130178 -0.019789
v -0.068965 0.130178 -0.019789
v -0.110830 0.238549 -0.019789
v -0.119844 0.238549 -0.019789
v -0.110830 0.130178 -0.019789
v -0.086791 0.130178 -0.019789
v -0.068965 0.238549 -0.019789
v -0.068965 0.141083 -0.019789
v -0.086791 0.141083 -0.019789
v 0.033100 0.141083 -0.021699
v 0.033100 0.170852 -0.021699
v 0.003851 0.185736 -0.021699
v 0.003851 0.155967 -0.021699
v -0.119844 0.185736 -0.019789
v -0.119844 0.155967 -0.019789
v -0.068965 0.185736 -0.019789
v -0.068965 0.155967 -0.019789
v -0.086791 0.238549 -0.019789
v -0.086791 0.185736 -0.019789
v -0.086791 0.155967 -0.019789
v -0.110830 0.141083 -0.019789
v -0.110830 0.185736 -0.019789
v 0.033100 0.155967 -0.021699
v 0.003851 0.170852 -0.021699
v -0.119844 0.170852 -0.019789
v -0.068965 0.170852 -0.019789
v -0.086791 0.170852 -0.019789
v -0.110830 0.155967 -0.019789
v -0.110830 0.170852 -0.019789
v 0.032470 0.488735 -0.018466
v -0.011341 0.454810 -0.021699
v 0.004481 0.488735 -0.018466
v 0.046992 0.102455 0.019740
v 0.046992 0.130178 0.019740
v 0.046992 0.102455 -0.021699
v 0.046992 0.130178 -0.021699
v 0.003851 0.093800 0.019740
v 0.033100 0.093800 0.019740
v 0.003851 0.093800 -0.021699
v 0.033100 0.093800 -0.021699
v 0.033100 0.111696 0.019740
v 0.033100 0.120937 0.019740
v 0.003851 0.120937 0.019740
v 0.003851 0.111696 0.019740
v 0.033100 0.111696 -0.021699
v 0.033100 0.120937 -0.021699
v 0.003851 0.120937 -0.021699
v 0.003851 0.111696 -0.021699
v 0.046992 0.111696 0.019740
v 0.046992 0.120937 0.019740
v 0.046992 0.111696 -0.021699
v 0.046992 0.120937 -0.021699
v 0.050779 0.111696 0.028391
v 0.050779 0.120937 0.028391
v 0.050779 0.111696 -0.021699
v 0.050779 0.120937 -0.021699
v 0.033100 0.365530 0.019740
v 0.033100 0.396549 0.019740
v 0.003851 0.396549 0.019740
v 0.003851 0.365530 0.019740
v 0.033100 0.365530 -0.021699
v 0.033100 0.396549 -0.021699
v 0.003851 0.396549 -0.021699
v 0.003851 0.365530 -0.021699
v 0.036507 0.375870 0.024567
v 0.036507 0.386209 0.024567
v 0.000444 0.386209 0.024567
v 0.000444 0.375870 0.024567
v 0.036507 0.375870 -0.026526
v 0.036507 0.386209 -0.026526
v 0.000444 0.386209 -0.026526
v 0.000444 0.375870 -0.026526
v 0.033100 0.402753 0.019740
v 0.035183 0.408956 0.022690
v 0.035183 0.415160 0.022690
v 0.033100 0.421364 0.019740
v 0.033100 0.402753 -0.021699
v 0.035183 0.408956 -0.024650
v 0.035183 0.415160 -0.024650
v 0.033100 0.421364 -0.021699
v 0.003851 0.421364 0.019740
v 0.001768 0.415160 0.022690
v 0.001768 0.408956 0.022690
v 0.003851 0.402753 0.019740
v 0.003851 0.421364 -0.021699
v 0.001768 0.415160 -0.024650
v 0.001768 0.408956 -0.024650
v 0.003851 0.402753 -0.021699
v 0.003851 0.299525 0.019740
v -0.000140 0.275535 0.025394
v -0.000140 0.251544 0.025394
v 0.037091 0.251544 0.025394
v 0.037091 0.275535 0.025394
v 0.033100 0.299525 0.019740
v 0.003851 0.299525 -0.021699
v -0.000140 0.275535 -0.027354
v -0.000140 0.251544 -0.027354
v 0.037091 0.251544 -0.027354
v 0.037091 0.275535 -0.027354
v 0.033100 0.299525 -0.021699
v -0.119844 0.155967 0.005504
v -0.119844 0.155967 -0.007143
v -0.110830 0.155967 -0.007143
v -0.110830 0.155967 0.005504
v 0.098028 0.710315 0.005061
v 0.098028 0.710315 -0.006703
v 0.129174 0.678407 -0.006703
v 0.129174 0.678407 0.005061
v 0.049261 0.454810 0.008917
v 0.049261 0.454810 -0.010556
v 0.042164 0.427567 -0.010556
v 0.042164 0.427567 0.008917
v -0.110830 0.170852 0.005504
v -0.110830 0.170852 -0.007143
v -0.119844 0.170852 -0.007143
v -0.119844 0.170852 0.005504
v -0.119844 0.185736 0.005504
v -0.119844 0.185736 -0.007143
v -0.119844 0.234139 -0.007143
v -0.119844 0.234139 0.005504
v -0.061077 0.710315 0.005061
v -0.061077 0.710315 -0.006703
v -0.029932 0.742224 -0.006703
v -0.029932 0.742224 0.005061
v -0.005213 0.427567 0.008917
v -0.005213 0.427567 -0.010556
v -0.012310 0.454810 -0.010556
v -0.012310 0.454810 0.008917
v -0.119844 0.141083 0.005504
v -0.119844 0.141083 -0.007143
v -0.068965 0.185736 0.005504
v -0.068965 0.185736 -0.007143
v -0.068965 0.234139 -0.007143
v -0.068965 0.234139 0.005504
v 0.066883 0.742224 0.005061
v 0.066883 0.742224 -0.006703
v -0.086791 0.234139 0.005504
v -0.086791 0.234139 -0.007143
v -0.086791 0.185736 -0.007143
v -0.086791 0.185736 0.005504
v -0.110830 0.234139 0.005504
v -0.110830 0.234139 -0.007143
v -0.005213 0.238549 0.008917
v -0.005213 0.238549 -0.010556
v -0.005213 0.334512 -0.010556
v -0.005213 0.334512 0.008917
v -0.110830 0.133121 0.005504
v -0.110830 0.133121 -0.007143
v -0.119844 0.133121 -0.007143
v -0.119844 0.133121 0.005504
v -0.068965 0.144027 0.005504
v -0.068965 0.144027 -0.007143
v -0.086791 0.144027 -0.007143
v -0.086791 0.144027 0.005504
v 0.042164 0.238549 0.008917
v 0.042164 0.238549 -0.010556
v 0.042164 0.185736 -0.010556
v 0.042164 0.185736 0.008917
v 0.042164 0.130178 0.008917
v 0.042164 0.130178 -0.010556
v 0.042164 0.102455 -0.010556
v 0.042164 0.102455 0.008917
v 0.042164 0.334512 -0.010556
v 0.042164 0.334512 0.008917
v -0.060966 0.486302 0.005061
v -0.060966 0.486302 -0.006703
v -0.092111 0.517794 -0.006703
v -0.092111 0.517794 0.005061
v 0.097917 0.486302 0.005061
v 0.097917 0.486302 -0.006703
v -0.005213 0.102455 0.008917
v -0.005213 0.102455 -0.010556
v -0.005213 0.130178 -0.010556
v -0.005213 0.130178 0.008917
v 0.129062 0.517794 0.005061
v 0.129062 0.517794 -0.006703
v -0.123256 0.549286 -0.006703
v -0.123256 0.549286 0.005061
v 0.160208 0.549286 0.005061
v 0.160208 0.549286 -0.006703
v 0.042164 0.155967 0.008917
v 0.042164 0.155967 -0.010556
v 0.042164 0.141083 -0.010556
v 0.042164 0.141083 0.008917
v 0.042164 0.170852 0.008917
v 0.042164 0.170852 -0.010556
v -0.068965 0.133121 -0.007143
v -0.068965 0.133121 0.005504
v -0.008586 0.408956 0.008917
v -0.008586 0.415160 0.008917
v -0.123368 0.646498 -0.006703
v -0.123368 0.646498 0.005061
v -0.086791 0.133121 0.005504
v -0.086791 0.133121 -0.007143
v 0.160319 0.646498 0.005061
v 0.160319 0.646498 -0.006703
v -0.092222 0.678407 -0.006703
v -0.092222 0.678407 0.005061
v 0.046992 0.130178 0.008917
v 0.046992 0.130178 -0.010556
v 0.046992 0.102455 -0.010556
v 0.046992 0.102455 0.008917
v 0.042164 0.093800 -0.010556
v 0.042164 0.093800 0.008917
v -0.005213 0.093800 0.008917
v -0.005213 0.093800 -0.010556
v 0.046992 0.111696 0.008917
v 0.046992 0.111696 -0.010556
v 0.046992 0.120937 0.008917
v 0.046992 0.120937 -0.010556
v -0.005213 0.120937 0.008917
v -0.005213 0.120937 -0.010556
v -0.005213 0.111696 0.008917
v -0.005213 0.111696 -0.010556
v 0.050779 0.111696 0.008917
v 0.050779 0.111696 -0.010556
v 0.050779 0.120937 0.008917
v 0.050779 0.120937 -0.010556
v -0.005213 0.396549 0.008917
v -0.005213 0.396549 -0.010556
v -0.005213 0.365530 0.008917
v -0.005213 0.365530 -0.010556
v 0.042164 0.365530 0.008917
v 0.042164 0.365530 -0.010556
v 0.042164 0.396549 0.008917
v 0.042164 0.396549 -0.010556
v 0.047683 0.375870 0.011186
v 0.047683 0.375870 -0.012825
v 0.047683 0.386209 0.011186
v 0.047683 0.386209 -0.012825
v -0.010732 0.386209 0.011186
v -0.010732 0.386209 -0.012825
v -0.010732 0.375870 0.011186
v -0.010732 0.375870 -0.012825
v -0.005213 0.421364 0.008917
v -0.005213 0.421364 -0.010556
v -0.008586 0.415160 0.010304
v -0.008586 0.415160 -0.011943
v -0.008586 0.408956 0.010304
v -0.008586 0.408956 -0.011943
v -0.005213 0.402753 0.008917
v -0.005213 0.402753 -0.010556
v 0.042164 0.402753 0.008917
v 0.042164 0.402753 -0.010556
v 0.045538 0.408956 0.010304
v 0.045538 0.408956 -0.011943
v 0.045538 0.415160 0.010304
v 0.045538 0.415160 -0.011943
v 0.042164 0.421364 0.008917
v 0.042164 0.421364 -0.010556
v 0.048629 0.251544 0.011575
v 0.048629 0.251544 -0.013214
v 0.048629 0.275535 0.011575
v 0.048629 0.275535 -0.013214
v 0.042164 0.299525 0.008917
v 0.042164 0.299525 -0.010556
v -0.005213 0.299525 0.008917
v -0.005213 0.299525 -0.010556
v -0.011678 0.275535 0.011575
v -0.011678 0.275535 -0.013214
v -0.011678 0.251544 0.011575
v -0.011678 0.251544 -0.013214
v -0.010258 0.130178 0.018150
v -0.010258 0.238549 0.018150
v -0.010258 0.141083 0.018150
v -0.010258 0.185736 0.018150
v -0.010258 0.155967 0.018150
v -0.010258 0.170852 0.018150
v -0.010258 0.130178 -0.019789
v -0.010258 0.238549 -0.019789
v -0.010258 0.141083 -0.019789
v -0.010258 0.185736 -0.019789
v -0.010258 0.155967 -0.019789
v -0.010258 0.170852 -0.019789
v -0.010258 0.234139 0.005504
v -0.010258 0.234139 -0.007143
v -0.010258 0.133121 0.005504
v -0.010258 0.133121 -0.007143
v 0.080766 0.503264 0.023931
v 0.111911 0.534756 0.023931
v 0.143057 0.566248 0.023931
v 0.143057 0.629649 0.023931
v 0.111911 0.661557 0.023931
v 0.080766 0.693466 0.023931
v 0.049621 0.725375 0.023932
v -0.043815 0.503264 0.023931
v -0.074960 0.534756 0.023931
v -0.106105 0.566248 0.023931
v -0.106105 0.629649 0.023931
v -0.074960 0.661557 0.023931
v -0.043815 0.693466 0.023931
v -0.012670 0.725375 0.023932
v 0.040381 0.471772 0.020266
v -0.003430 0.471772 0.020266
v 0.080819 0.503212 -0.025568
v 0.111964 0.534704 -0.025568
v 0.143110 0.566196 -0.025568
v 0.143110 0.629701 -0.025568
v 0.111965 0.661609 -0.025568
v 0.080819 0.693518 -0.025568
v 0.049674 0.725427 -0.025568
v -0.043868 0.503212 -0.025568
v -0.075013 0.534704 -0.025568
v -0.106158 0.566196 -0.025568
v -0.106159 0.629701 -0.025568
v -0.075013 0.661609 -0.025568
v -0.043868 0.693518 -0.025568
v -0.012723 0.725427 -0.025568
v 0.040405 0.471720 -0.022028
v -0.003454 0.471720 -0.022028
v -0.011678 0.275535 0.008917
v -0.011678 0.251544 0.008917
v -0.010258 0.235329 0.008917
v -0.068965 0.235329 0.008917
v -0.068965 0.185736 0.008917
v -0.086791 0.185736 0.008917
v -0.086791 0.235329 0.008917
v -0.110830 0.235329 0.008917
v -0.119844 0.235329 0.008917
v -0.119844 0.185736 0.008917
v -0.119844 0.170852 0.008917
v -0.110830 0.170852 0.008917
v -0.110830 0.155967 0.008917
v -0.119844 0.155967 0.008917
v -0.119844 0.141083 0.008917
v -0.119844 0.132327 0.008917
v -0.110830 0.132327 0.008917
v -0.086791 0.132327 0.008917
v -0.086791 0.143232 0.008917
v -0.068965 0.143232 0.008917
v -0.068965 0.132327 0.008917
v -0.010258 0.132327 0.008917
v 0.048629 0.251544 0.008917
v 0.048629 0.275535 0.008917
v 0.047683 0.375870 0.008917
v 0.047683 0.386209 0.008917
v 0.045538 0.408956 0.008917
v 0.045538 0.415160 0.008917
v 0.125850 0.598005 0.016825
v 0.125850 0.598005 -0.018466
v 0.188995 0.597892 -0.018466
v 0.188995 0.597892 0.016825
v 0.188995 0.597892 -0.006703
v 0.188995 0.597892 0.005061
v 0.168302 0.597948 0.023931
v 0.168366 0.597948 -0.025568
v -0.152044 0.597892 0.016825
v -0.088899 0.598005 0.016825
v -0.152044 0.597892 -0.018466
v -0.088899 0.598005 -0.018466
v -0.152044 0.597892 -0.006703
v -0.152044 0.597892 0.005061
v -0.131350 0.597948 0.023931
v -0.131414 0.597948 -0.025568
v 0.018476 0.708526 0.016825
v 0.018476 0.742224 -0.018466
v 0.018476 0.742224 0.016825
v 0.018476 0.708526 -0.018466
v 0.018476 0.742224 -0.006703
v 0.018476 0.742224 0.005061
v 0.018476 0.725375 0.023932
v 0.018476 0.725427 -0.025568
v 0.018476 0.427567 0.019740
v 0.018476 0.102455 0.019740
v 0.018476 0.238549 0.019740
v 0.018476 0.130178 0.019740
v 0.018476 0.185736 0.019740
v 0.018476 0.141083 0.019740
v 0.018476 0.170852 0.019740
v 0.018476 0.155967 0.019740
v 0.018476 0.334512 0.019740
v 0.018476 0.488735 0.016825
v 0.018476 0.454810 0.019740
v 0.018476 0.427567 -0.021699
v 0.018476 0.102455 -0.021699
v 0.018476 0.238549 -0.021699
v 0.018476 0.130178 -0.021699
v 0.018476 0.185736 -0.021699
v 0.018476 0.141083 -0.021699
v 0.018476 0.170852 -0.021699
v 0.018476 0.155967 -0.021699
v 0.018476 0.334512 -0.021699
v 0.018476 0.488735 -0.018466
v 0.018476 0.454810 -0.021699
v 0.018476 0.093800 0.019740
v 0.018476 0.093800 -0.021699
v 0.018476 0.120937 -0.021699
v 0.018476 0.111696 -0.021699
v 0.018476 0.120937 0.019740
v 0.018476 0.111696 0.019740
v 0.018476 0.396549 -0.021699
v 0.018476 0.365530 -0.021699
v 0.018476 0.396549 0.019740
v 0.018476 0.365530 0.019740
v 0.018476 0.386209 0.024567
v 0.018476 0.375870 0.024567
v 0.018476 0.386209 -0.026526
v 0.018476 0.375870 -0.026526
v 0.018476 0.421364 0.019740
v 0.018476 0.415160 0.022690
v 0.018476 0.408956 0.022690
v 0.018476 0.402753 0.019740
v 0.018476 0.421364 -0.021699
v 0.018476 0.415160 -0.024650
v 0.018476 0.408956 -0.024650
v 0.018476 0.402753 -0.021699
v 0.018476 0.299525 -0.021699
v 0.018476 0.275535 -0.027354
v 0.018476 0.251544 -0.027354
v 0.018476 0.299525 0.019740
v 0.018476 0.275535 0.025394
v 0.018476 0.251544 0.025394
v 0.018476 0.093800 0.008917
v 0.018476 0.093800 -0.010556
v 0.018476 0.471772 0.020266
v 0.018476 0.471720 -0.022028
v 0.113596 0.611153 -0.000821
v 0.085991 0.639435 -0.000821
v -0.021434 0.667717 -0.000821
v -0.049039 0.639435 -0.000821
v 0.058386 0.667717 -0.000821
v 0.006171 0.695998 -0.000821
v 0.030781 0.695998 -0.000821
v -0.049138 0.557015 -0.000821
v -0.021533 0.529103 -0.000821
v 0.058484 0.529103 -0.000821
v 0.086089 0.557015 -0.000821
v -0.076743 0.584928 -0.000821
v 0.113694 0.584928 -0.000821
v -0.076644 0.611153 -0.000821
v 0.030879 0.501191 -0.000821
v 0.006072 0.501191 -0.000821
v 0.113645 0.598041 -0.000821
v -0.076694 0.598041 -0.000821
v 0.018476 0.695998 -0.000821
v 0.018476 0.501191 -0.000821
vn -0.1784 0.1150 0.9772
vn -0.2009 0.1987 0.9592
vn 0.8604 -0.5096 -0.0000
vn -0.2022 -0.1974 0.9592
vn -0.3194 0.1885 0.9287
vn 0.2009 0.1987 0.9592
vn -0.2022 0.1974 0.9592
vn 0.2022 -0.1974 0.9592
vn -0.8604 -0.5096 -0.0000
vn -0.0000 0.1988 0.9800
vn -0.0000 -0.3990 0.9169
vn -0.0000 -0.0000 1.0000
vn -0.1651 -0.0006 0.9863
vn -0.0000 -0.0310 0.9995
vn -0.2002 0.1980 -0.9595
vn 1.0000 -0.0000 -0.0000
vn -0.2015 -0.1967 -0.9595
vn -0.2227 0.1771 -0.9587
vn 0.1795 0.1206 -0.9763
vn 0.2002 0.1980 -0.9595
vn -0.0000 0.3894 -0.9211
vn -0.0000 -0.3886 0.9214
vn 0.2015 -0.1967 -0.9595
vn 0.3201 0.1889 -0.9284
vn -0.0000 0.2049 -0.9788
vn -0.0000 -0.3990 -0.9169
vn -0.0000 -0.0000 -1.0000
vn 0.2221 0.1769 0.9588
vn -0.0000 -0.9740 -0.2267
vn -0.0000 0.3886 0.9214
vn -0.6244 -0.6095 -0.4885
vn -0.0000 1.0000 -0.0000
vn 0.6244 -0.6095 -0.4885
vn 0.7156 0.6985 -0.0000
vn 0.9643 -0.2512 -0.0839
vn -0.0000 -1.0000 -0.0000
vn -1.0000 -0.0000 -0.0000
vn -0.7156 0.6985 -0.0000
vn -0.9643 -0.2512 -0.0839
vn -0.0000 -0.8154 -0.5789
vn -0.0000 0.9442 0.3293
vn -0.6889 -0.4577 -0.5621
vn -0.0000 -0.9740 0.2267
vn 0.7757 -0.0000 -0.6310
vn 0.7758 -0.0000 -0.6310
vn -0.7110 -0.7032 -0.0000
vn 0.5434 -0.8395 -0.0000
vn -0.7757 -0.0000 -0.6310
vn 0.6202 0.6134 -0.4889
vn 0.7110 -0.7032 -0.0000
vn -0.6202 0.6134 -0.4889
vn 0.8613 0.5081 -0.0000
vn -0.3832 -0.8996 0.2094
vn 0.8224 -0.0031 -0.5689
vn -0.8224 -0.0031 -0.5689
vn -0.5434 -0.8395 -0.0000
vn -0.0000 0.8170 -0.5767
vn -0.7666 -0.0000 0.6421
vn -0.9161 -0.0000 0.4010
vn -0.7758 -0.0000 -0.6310
vn -0.6783 -0.4835 -0.5533
vn 0.6783 0.4835 -0.5533
vn -0.0000 -0.4230 -0.9061
vn -0.0000 -0.4230 0.9061
vn -0.0000 0.4230 0.9061
vn -0.0000 0.4230 -0.9061
vn 0.6783 -0.4835 -0.5533
vn 0.7749 -0.0000 -0.6321
vn -0.6783 0.4835 -0.5533
vn -0.7749 -0.0000 -0.6321
vn -0.0000 0.4295 0.9031
vn -0.0000 -0.4295 0.9031
vn -0.0000 0.4295 -0.9031
vn -0.0000 -0.4295 -0.9031
vn -0.6756 0.4904 -0.5505
vn -0.7752 -0.0000 -0.6317
vn -0.6756 -0.4904 -0.5505
vn 0.6756 -0.4904 -0.5505
vn 0.7752 -0.0000 -0.6317
vn 0.6756 0.4904 -0.5505
vn 0.6889 -0.4577 -0.5621
vn 0.7748 -0.0000 -0.6322
vn 0.7463 0.2686 -0.6090
vn -0.7463 0.2686 -0.6090
vn -0.7748 -0.0000 -0.6322
vn -0.0000 0.2294 -0.9733
vn -0.0000 0.2294 0.9733
vn -0.7676 -0.0000 0.6409
vn -0.7384 0.2686 0.6185
vn -0.9656 0.2602 -0.0000
vn 0.7384 0.2686 0.6185
vn 0.9656 0.2602 -0.0000
vn 0.7676 -0.0000 0.6409
vn 0.6816 -0.4578 0.5709
vn 0.8953 -0.4454 -0.0000
vn 0.6681 0.4904 0.5596
vn 0.8785 0.4777 -0.0000
vn 0.7672 -0.0000 0.6414
vn 0.6681 -0.4904 0.5596
vn 0.8785 -0.4777 -0.0000
vn 0.7666 -0.0000 0.6421
vn -0.6681 -0.4904 0.5596
vn -0.8785 -0.4777 -0.0000
vn -0.7672 -0.0000 0.6414
vn -0.6681 0.4904 0.5596
vn -0.8785 0.4777 -0.0000
vn -0.7675 -0.0000 0.6410
vn -0.6711 0.4835 0.5620
vn -0.8822 0.4709 -0.0000
vn 0.7675 -0.0000 0.6410
vn 0.6711 -0.4835 0.5620
vn 0.8822 -0.4709 -0.0000
vn 0.6711 0.4835 0.5620
vn 0.8822 0.4709 -0.0000
vn -0.6710 -0.4835 0.5620
vn -0.8822 -0.4709 -0.0000
vn -0.5372 -0.8421 0.0481
vn -0.0000 0.9442 -0.3293
vn -0.3832 -0.8996 -0.2094
vn -0.5039 -0.8638 -0.0000
vn -0.8613 0.5081 -0.0000
vn 0.5372 -0.8421 0.0481
vn -0.6816 -0.4578 0.5709
vn -0.8953 -0.4454 -0.0000
vn -0.7049 -0.3931 0.5904
vn -0.9677 -0.2521 -0.0000
vn 0.7049 -0.3931 0.5904
vn 0.9677 -0.2521 -0.0000
vn -0.6581 0.7529 -0.0000
vn -0.5161 0.8088 -0.2820
vn -0.5161 0.8088 0.2820
vn -0.1341 -0.0000 -0.9910
vn -0.1119 -0.0000 0.9937
vn -0.2009 -0.1987 0.9592
vn -0.1258 -0.2724 0.9539
vn 0.1651 -0.0006 0.9863
vn 0.2022 0.1974 0.9592
vn 0.2009 -0.1987 0.9592
vn 0.0604 -0.0028 0.9982
vn -0.0000 -0.0194 -0.9998
vn -0.1648 -0.0006 -0.9863
vn -0.2027 0.1978 -0.9591
vn -0.0000 -0.3874 -0.9219
vn -0.2014 -0.1992 -0.9591
vn -0.0597 0.0084 -0.9982
vn 0.1648 -0.0006 -0.9863
vn 0.2027 0.1978 -0.9591
vn 0.2014 -0.1992 -0.9591
vn 0.1279 -0.2713 -0.9539
vn -0.2216 0.1763 -0.9591
vn 0.2222 -0.1770 0.9588
vn 0.2229 -0.1773 -0.9586
vn 0.2222 0.1770 0.9588
vn -0.2229 -0.1773 -0.9586
vn -0.2222 -0.1770 0.9588
vn -0.0000 0.8170 0.5767
vn -0.0000 -0.8154 0.5789
vn 0.8224 -0.0031 0.5689
vn -0.8224 -0.0031 0.5689
vn 0.6202 0.6134 0.4889
vn 0.6244 -0.6095 0.4885
vn -0.6202 0.6134 0.4889
vn -0.6244 -0.6095 0.4885
vn -0.2221 0.1769 0.9588
vn 0.1784 0.1150 0.9772
vn -0.2221 -0.1769 0.9588
vn -0.1795 0.1206 -0.9763
vn -0.3201 0.1889 -0.9284
vn 0.2227 0.1771 -0.9587
vn 0.3194 0.1885 0.9287
vn 0.7120 -0.3970 -0.5792
vn -0.7120 -0.3970 -0.5792
vn -0.6903 -0.4563 -0.5615
vn 0.5374 -0.8420 -0.0467
vn -0.5374 -0.8420 -0.0467
vn -0.6797 -0.4821 -0.5529
vn 0.6796 0.4821 -0.5529
vn 0.6797 -0.4821 -0.5529
vn -0.6796 0.4821 -0.5529
vn -0.6767 0.4890 -0.5505
vn -0.6767 -0.4890 -0.5505
vn 0.6767 -0.4890 -0.5505
vn 0.6767 0.4890 -0.5505
vn 0.6903 -0.4564 -0.5615
vn 0.7474 0.2677 -0.6080
vn -0.7474 0.2677 -0.6080
vn -0.7396 0.2677 0.6175
vn 0.7396 0.2677 0.6175
vn 0.6830 -0.4564 0.5702
vn 0.6692 0.4890 0.5595
vn 0.6692 -0.4890 0.5595
vn -0.6692 -0.4890 0.5595
vn -0.6692 0.4890 0.5595
vn -0.6724 0.4821 0.5616
vn 0.6724 -0.4821 0.5616
vn 0.6724 0.4821 0.5616
vn -0.6724 -0.4821 0.5616
vn -0.6830 -0.4564 0.5702
vn -0.9641 -0.2512 0.0863
vn 0.9641 -0.2512 0.0863
vn -0.0604 -0.0028 0.9982
vn 0.2221 -0.1769 0.9588
vn 0.1258 -0.2724 0.9539
vn -0.2215 -0.1761 -0.9591
vn -0.1279 -0.2713 -0.9539
vn 0.2215 -0.1761 -0.9591
vn 0.0597 0.0084 -0.9982
vn 0.3185 -0.1886 0.9290
vn 0.3192 -0.1890 -0.9286
vn -0.2222 0.1770 0.9588
vn 0.2216 0.1763 -0.9591
vn -0.3192 -0.1890 -0.9287
vn -0.3185 -0.1886 0.9290
vt 0.741327 0.289735
vt 0.686865 0.324730
vt 0.702636 0.342844
vt 0.741415 0.225054
vt 0.768602 0.239897
vt 0.768690 0.175217
vt 0.795877 0.190060
vt 0.908971 0.661131
vt 0.924068 0.597858
vt 0.908979 0.597857
vt 0.708417 0.110431
vt 0.773473 0.111883
vt 0.723793 0.083543
vt 0.658737 0.082092
vt 0.674114 0.055204
vt 0.609058 0.053752
vt 0.624434 0.026864
vt 0.446318 0.247941
vt 0.438959 0.185267
vt 0.420776 0.255335
vt 0.587713 0.333759
vt 0.652354 0.334620
vt 0.602821 0.306795
vt 0.553289 0.278969
vt 0.538181 0.305934
vt 0.488648 0.278108
vt 0.503757 0.251144
vt 0.466087 0.134915
vt 0.466244 0.199931
vt 0.493371 0.149579
vt 0.520342 0.034212
vt 0.520499 0.099228
vt 0.547627 0.048877
vt 0.520565 0.164267
vt 0.547693 0.113916
vt 0.574820 0.063564
vt 0.893437 0.904529
vt 0.908952 0.959732
vt 0.908526 0.904499
vt 0.675625 0.350585
vt 0.669609 0.329675
vt 0.753483 0.622133
vt 0.740006 0.643334
vt 0.758039 0.638166
vt 0.681616 0.371501
vt 0.673210 0.410261
vt 0.691243 0.405093
vt 0.784834 0.799751
vt 0.806132 0.805978
vt 0.802866 0.794583
vt 0.774449 0.763515
vt 0.796335 0.771794
vt 0.792481 0.758347
vt 0.598589 0.683862
vt 0.606137 0.752169
vt 0.617252 0.748984
vt 0.722598 0.648322
vt 0.668873 0.734190
vt 0.741261 0.713444
vt 0.652153 0.758842
vt 0.674133 0.752543
vt 0.757041 0.768504
vt 0.688506 0.802696
vt 0.760894 0.781951
vt 0.746521 0.731797
vt 0.633032 0.804043
vt 0.625770 0.820676
vt 0.636885 0.817490
vt 0.611396 0.770522
vt 0.622512 0.767337
vt 0.776702 0.703287
vt 0.769189 0.745162
vt 0.787222 0.739994
vt 0.758669 0.708455
vt 0.781962 0.721641
vt 0.763929 0.726809
vt 0.627772 0.785690
vt 0.621916 0.807229
vt 0.751781 0.750151
vt 0.684653 0.789249
vt 0.679393 0.770896
vt 0.662673 0.795549
vt 0.657413 0.777195
vt 0.646893 0.740489
vt 0.666527 0.808995
vt 0.628230 0.675367
vt 0.695133 0.486757
vt 0.724127 0.519837
vt 0.713166 0.481589
vt 0.815803 0.142050
vt 0.758096 0.138771
vt 0.763393 0.156994
vt 0.493214 0.084564
vt 0.100209 0.290004
vt 0.154841 0.324832
vt 0.127458 0.275054
vt 0.100075 0.225275
vt 0.072826 0.240226
vt 0.072691 0.175497
vt 0.045443 0.190447
vt 0.290538 0.833990
vt 0.301766 0.822147
vt 0.287783 0.822147
vt 0.067713 0.112093
vt 0.132823 0.110580
vt 0.117331 0.083645
vt 0.182440 0.082133
vt 0.166948 0.055198
vt 0.232058 0.053685
vt 0.216566 0.026750
vt 0.395288 0.247544
vt 0.402441 0.184829
vt 0.375263 0.199510
vt 0.254049 0.333731
vt 0.189373 0.334647
vt 0.193170 0.358418
vt 0.288316 0.278780
vt 0.303520 0.305797
vt 0.352992 0.277864
vt 0.293552 0.048633
vt 0.261005 0.016976
vt 0.255059 0.037692
vt 0.586030 0.037870
vt 0.591939 0.058658
vt 0.320790 0.164008
vt 0.348026 0.149217
vt 0.320789 0.098925
vt 0.266316 0.063423
vt 0.025417 0.142413
vt 0.052427 0.085342
vt 0.000000 0.135257
vt 0.166112 0.350728
vt 0.139055 0.343037
vt 0.088856 0.622381
vt 0.102387 0.643551
vt 0.111825 0.628910
vt 0.160185 0.371592
vt 0.168675 0.410334
vt 0.196973 0.382049
vt 0.036616 0.806339
vt 0.057900 0.800066
vt 0.039856 0.794937
vt 0.046338 0.772134
vt 0.068206 0.763807
vt 0.050162 0.758679
vt 0.236497 0.752095
vt 0.243896 0.683772
vt 0.225374 0.748934
vt 0.173722 0.734252
vt 0.119810 0.648502
vt 0.101289 0.713664
vt 0.190495 0.758868
vt 0.168502 0.752617
vt 0.154238 0.802801
vt 0.085629 0.768758
vt 0.081805 0.782213
vt 0.096069 0.732029
vt 0.217013 0.820644
vt 0.209715 0.804028
vt 0.205890 0.817483
vt 0.231277 0.770460
vt 0.220155 0.767298
vt 0.065822 0.703584
vt 0.084343 0.638422
vt 0.073426 0.745443
vt 0.055382 0.740314
vt 0.060602 0.721949
vt 0.083866 0.708713
vt 0.078646 0.727078
vt 0.220837 0.807189
vt 0.214935 0.785663
vt 0.158062 0.789346
vt 0.090849 0.750393
vt 0.163282 0.770981
vt 0.180055 0.795597
vt 0.185275 0.777233
vt 0.195715 0.740503
vt 0.176231 0.809053
vt 0.214236 0.675341
vt 0.117997 0.520020
vt 0.146919 0.486877
vt 0.128875 0.481748
vt 0.788758 0.085018
vt 0.828000 0.822149
vt 0.839380 0.894284
vt 0.839896 0.823042
vt 0.580031 0.017106
vt 0.954578 0.552609
vt 0.977626 0.589717
vt 0.977480 0.544463
vt 0.373665 0.870795
vt 0.385228 0.854577
vt 0.373665 0.854580
vt 0.954224 0.218840
vt 0.931594 0.188146
vt 0.931593 0.225320
vt 0.954235 0.496585
vt 0.939139 0.456694
vt 0.939146 0.496585
vt 0.887409 0.035167
vt 0.901703 0.000032
vt 0.887411 0.000000
vt 0.373665 0.822226
vt 0.362726 0.838365
vt 0.373665 0.838444
vt 0.626070 0.827413
vt 0.609849 0.888593
vt 0.626070 0.888612
vt 0.878774 0.695677
vt 0.863557 0.742782
vt 0.878646 0.742753
vt 0.848448 0.416802
vt 0.862794 0.449939
vt 0.862732 0.417028
vt 0.264919 0.822147
vt 0.246100 0.838390
vt 0.264919 0.838368
vt 0.977334 0.499209
vt 0.755710 0.827413
vt 0.739488 0.888593
vt 0.755710 0.888612
vt 0.954226 0.176899
vt 0.931596 0.150973
vt 0.954229 0.456694
vt 0.939133 0.416803
vt 0.707178 0.889540
vt 0.690956 0.827474
vt 0.690956 0.889539
vt 0.954495 0.433648
vt 0.977187 0.453956
vt 0.977407 0.439024
vt 0.954413 0.501552
vt 0.148276 0.870792
vt 0.179174 0.854740
vt 0.148341 0.854740
vt 0.350003 0.845137
vt 0.362726 0.827272
vt 0.349968 0.822147
vt 0.230854 0.822147
vt 0.221254 0.838280
vt 0.232194 0.838280
vt 0.738265 0.821975
vt 0.717856 0.837961
vt 0.739488 0.838118
vt 0.901699 0.345561
vt 0.887409 0.277542
vt 0.887409 0.345262
vt 0.264919 0.870799
vt 0.287783 0.854577
vt 0.264919 0.854584
vt 0.834762 0.773112
vt 0.814368 0.766626
vt 0.817633 0.778021
vt 0.901699 0.043420
vt 0.887409 0.043121
vt 0.912192 0.794827
vt 0.927813 0.845708
vt 0.927278 0.794827
vt 0.147100 0.836428
vt 0.101140 0.825047
vt 0.101140 0.840134
vt 0.077772 0.822147
vt 0.064112 0.836359
vt 0.075796 0.836359
vt 0.490340 0.890545
vt 0.468554 0.936762
vt 0.491375 0.925575
vt 0.954222 0.743946
vt 0.939141 0.702539
vt 0.939133 0.743945
vt 0.860113 0.748754
vt 0.841294 0.764997
vt 0.860113 0.764975
vt 0.323348 0.861010
vt 0.334149 0.875300
vt 0.334447 0.861010
vt 0.911657 0.743946
vt 0.926743 0.743946
vt 0.420893 0.905913
vt 0.443376 0.942270
vt 0.443427 0.901011
vt 0.492410 0.960605
vt 0.954231 0.702539
vt 0.939150 0.661132
vt 0.901699 0.402818
vt 0.887409 0.383434
vt 0.887409 0.402520
vt 0.939152 0.536475
vt 0.939158 0.597858
vt 0.901699 0.383733
vt 0.887409 0.364348
vt 0.246100 0.822169
vt 0.236033 0.838402
vt 0.443479 0.859753
vt 0.848582 0.526401
vt 0.862794 0.567595
vt 0.862794 0.528376
vt 0.790725 0.894284
vt 0.802521 0.900407
vt 0.806868 0.893061
vt 0.319329 0.870811
vt 0.308257 0.858981
vt 0.305540 0.870827
vt 0.901699 0.199651
vt 0.887409 0.154490
vt 0.887409 0.199353
vt 0.179109 0.870792
vt 0.190736 0.854740
vt 0.541634 0.883917
vt 0.556718 0.946010
vt 0.556718 0.883921
vt 0.626070 0.907431
vt 0.219914 0.822147
vt 0.192081 0.838280
vt 0.559172 0.839916
vt 0.575246 0.915275
vt 0.575223 0.839976
vt 0.954225 0.279754
vt 0.931591 0.262493
vt 0.931594 0.279309
vt 0.862431 0.260666
vt 0.859023 0.229903
vt 0.859023 0.260666
vt 0.420834 0.952462
vt 0.443324 0.983528
vt 0.319329 0.822147
vt 0.309262 0.838380
vt 0.323050 0.838364
vt 0.863429 0.789858
vt 0.878390 0.836905
vt 0.878518 0.789829
vt 0.291557 0.854590
vt 0.301766 0.870812
vt 0.305540 0.854590
vt 0.420864 0.840670
vt 0.443402 0.843185
vt 0.912727 0.845708
vt 0.923252 0.917840
vt 0.901699 0.416802
vt 0.887409 0.416504
vt 0.954242 0.536476
vt 0.489305 0.855516
vt 0.467386 0.897240
vt 0.901699 0.364647
vt 0.466218 0.839768
vt 0.489305 0.839607
vt 0.385228 0.875300
vt 0.397077 0.861008
vt 0.385228 0.861008
vt 0.847152 0.836745
vt 0.841294 0.850581
vt 0.858152 0.850703
vt 0.004673 0.784937
vt 0.018572 0.801210
vt 0.021813 0.789809
vt 0.847486 0.734466
vt 0.841294 0.748754
vt 0.859111 0.748749
vt 0.014289 0.851076
vt -0.000000 0.868927
vt 0.014289 0.879823
vt 0.053140 0.861338
vt 0.066026 0.875299
vt 0.064083 0.861338
vt 0.033580 0.817018
vt 0.054659 0.811468
vt 0.809190 0.816651
vt 0.824165 0.800810
vt 0.011154 0.762133
vt 0.025053 0.778407
vt 0.028294 0.767005
vt 0.007914 0.773535
vt 0.397077 0.875300
vt 0.408927 0.861008
vt 0.397077 0.861008
vt 0.858152 0.847377
vt 0.863009 0.861663
vt 0.863009 0.847376
vt 0.101140 0.822147
vt 0.087480 0.836359
vt 0.099164 0.836359
vt 0.089456 0.822147
vt 0.841294 0.795901
vt 0.820899 0.789415
vt 0.838028 0.784506
vt 0.043097 0.783536
vt 0.064382 0.777263
vt 0.061141 0.788664
vt 0.778302 0.776962
vt 0.799601 0.783189
vt 0.781568 0.788357
vt 0.408927 0.886398
vt 0.420776 0.872105
vt 0.408927 0.872105
vt 0.003241 0.772207
vt 0.852424 0.862387
vt 0.841294 0.851509
vt 0.841294 0.863193
vt 0.707178 0.861082
vt 0.711774 0.874993
vt 0.711774 0.861115
vt 0.848582 0.479338
vt 0.862794 0.489157
vt 0.862794 0.481314
vt 0.352125 0.867642
vt 0.362726 0.849568
vt 0.352096 0.845368
vt 0.901699 0.154788
vt 0.887409 0.114715
vt 0.907892 0.088385
vt 0.887409 0.074941
vt 0.890320 0.088017
vt 0.139753 0.443477
vt 0.159972 0.440951
vt 0.141928 0.435822
vt 0.132463 0.468985
vt 0.154711 0.475308
vt 0.681980 0.440860
vt 0.702205 0.443341
vt 0.700012 0.435692
vt 0.709543 0.468832
vt 0.684172 0.448509
vt 0.705889 0.456083
vt 0.683655 0.462455
vt 0.136089 0.456228
vt 0.157797 0.448605
vt 0.158337 0.462551
vt 0.907892 0.101644
vt 0.890320 0.101276
vt 0.842360 0.500984
vt 0.859836 0.503420
vt 0.859836 0.516493
vt 0.693435 0.412743
vt 0.675403 0.417911
vt 0.695647 0.420388
vt 0.675046 0.426292
vt 0.697839 0.428037
vt 0.148455 0.412859
vt 0.150631 0.405205
vt 0.146257 0.420510
vt 0.166499 0.417988
vt 0.144081 0.428164
vt 0.166870 0.426369
vt 0.164694 0.434023
vt 0.848582 0.447963
vt 0.862794 0.457783
vt 0.844779 0.464097
vt 0.860986 0.466353
vt 0.860986 0.474197
vt 0.856554 0.882314
vt 0.863009 0.864210
vt 0.856554 0.861664
vt 0.901699 0.075239
vt 0.887409 0.066986
vt 0.905485 0.059261
vt 0.889188 0.058920
vt 0.889188 0.050965
vt 0.905485 0.051306
vt 0.908954 0.261046
vt 0.890819 0.260666
vt 0.890819 0.229903
vt 0.908954 0.230283
vt 0.848582 0.565619
vt 0.862794 0.611831
vt 0.841294 0.641042
vt 0.859329 0.643557
vt 0.859329 0.673890
vt 0.105727 0.563188
vt 0.136041 0.525149
vt 0.097270 0.592781
vt 0.123771 0.568316
vt 0.120238 0.599309
vt 0.706095 0.525005
vt 0.736491 0.562978
vt 0.718458 0.568146
vt 0.745005 0.592551
vt 0.722051 0.599129
vt 0.891125 0.643594
vt 0.908952 0.671454
vt 0.908952 0.641121
vt 0.887716 0.673923
vt 0.887716 0.643590
vt 0.887773 0.611860
vt 0.901734 0.609917
vt 0.887773 0.567624
vt 0.901734 0.565681
vt 0.841294 0.230282
vt 0.862430 0.199352
vt 0.848546 0.199651
vt 0.862431 0.229903
vt 0.841294 0.261045
vt 0.862430 0.277542
vt 0.848546 0.277840
vt 0.844762 0.051306
vt 0.862430 0.043121
vt 0.848546 0.043420
vt 0.862431 0.050965
vt 0.860652 0.058920
vt 0.844762 0.059261
vt 0.862431 0.058920
vt 0.862430 0.066986
vt 0.848546 0.067284
vt 0.862430 0.074941
vt 0.848546 0.075239
vt 0.847557 0.883375
vt 0.841310 0.866057
vt 0.841294 0.883703
vt 0.887743 0.474228
vt 0.887773 0.481343
vt 0.889522 0.466386
vt 0.905500 0.472011
vt 0.905500 0.464167
vt 0.887743 0.466384
vt 0.887773 0.457812
vt 0.901734 0.455869
vt 0.887773 0.449968
vt 0.901734 0.448025
vt 0.890634 0.503455
vt 0.907896 0.514133
vt 0.907896 0.501060
vt 0.887724 0.516525
vt 0.887724 0.503452
vt 0.887773 0.489186
vt 0.901734 0.487244
vt 0.859521 0.101275
vt 0.842355 0.088385
vt 0.842355 0.101643
vt 0.862431 0.088017
vt 0.862431 0.101276
vt 0.862430 0.114715
vt 0.848546 0.115013
vt 0.862430 0.154490
vt 0.848546 0.154788
vt 0.349968 0.867377
vt 0.339687 0.850316
vt 0.339663 0.867962
vt 0.887773 0.528405
vt 0.901734 0.479400
vt 0.707178 0.821819
vt 0.711774 0.836141
vt 0.711774 0.821852
vt 0.707178 0.836108
vt 0.408927 0.847126
vt 0.420776 0.822147
vt 0.408927 0.822147
vt 0.420776 0.847126
vt 0.087451 0.861338
vt 0.077710 0.875299
vt 0.089394 0.875299
vt 0.075767 0.861338
vt 0.099135 0.861338
vt 0.101078 0.875299
vt 0.863009 0.808531
vt 0.858152 0.822409
vt 0.863009 0.822407
vt 0.397077 0.836028
vt 0.408927 0.822147
vt 0.397077 0.822147
vt 0.408927 0.836028
vt 0.055144 0.822147
vt 0.066088 0.822147
vt 0.053169 0.836359
vt 0.039262 0.850895
vt 0.053140 0.868542
vt 0.053140 0.850794
vt 0.039262 0.879642
vt 0.841294 0.695623
vt 0.847486 0.709497
vt 0.859111 0.695618
vt 0.841294 0.709499
vt 0.841294 0.797440
vt 0.847152 0.811772
vt 0.858152 0.797562
vt 0.841294 0.811729
vt 0.385228 0.836028
vt 0.397077 0.822147
vt 0.385228 0.822147
vt 0.397077 0.836028
vt 0.893735 0.742723
vt 0.908696 0.789770
vt 0.908824 0.742694
vt 0.893607 0.789799
vt 0.862430 0.364348
vt 0.848546 0.345561
vt 0.848546 0.364646
vt 0.862430 0.345262
vt 0.908973 0.536474
vt 0.924056 0.496584
vt 0.908967 0.496584
vt 0.924063 0.536475
vt 0.862430 0.416503
vt 0.848546 0.402818
vt 0.848546 0.416802
vt 0.862430 0.402520
vt 0.957985 0.845708
vt 0.948225 0.917840
vt 0.962095 0.919016
vt 0.942899 0.845708
vt 0.291557 0.838369
vt 0.304522 0.833990
vt 0.305540 0.838369
vt 0.908568 0.836846
vt 0.893479 0.836875
vt 0.322046 0.858965
vt 0.309262 0.854601
vt 0.323050 0.854585
vt 0.739158 0.858734
vt 0.716633 0.870473
vt 0.738265 0.870629
vt 0.860652 0.050965
vt 0.591438 0.839976
vt 0.595882 0.915259
vt 0.595859 0.839960
vt 0.591461 0.915275
vt 0.221372 0.854498
vt 0.191900 0.858898
vt 0.221073 0.858898
vt 0.192199 0.854498
vt 0.642291 0.888631
vt 0.646670 0.907455
vt 0.646670 0.888636
vt 0.642291 0.907450
vt 0.954239 0.661133
vt 0.954248 0.597859
vt 0.511468 0.883907
vt 0.526551 0.946001
vt 0.526551 0.883912
vt 0.179179 0.838525
vt 0.190727 0.834104
vt 0.179164 0.834104
vt 0.190741 0.838525
vt 0.191094 0.870800
vt 0.220267 0.870800
vt 0.859521 0.088017
vt 0.827484 0.893391
vt 0.823086 0.893061
vt 0.827495 0.900407
vt 0.901734 0.526462
vt 0.246100 0.858990
vt 0.236033 0.854623
vt 0.235029 0.859003
vt 0.246100 0.854611
vt 0.862430 0.383434
vt 0.848546 0.383732
vt 0.878348 0.904558
vt 0.526551 0.821823
vt 0.924052 0.702538
vt 0.908962 0.702538
vt 0.924060 0.661132
vt 0.941830 0.743946
vt 0.957451 0.794827
vt 0.956916 0.743946
vt 0.942364 0.794827
vt 0.323050 0.822147
vt 0.334447 0.836031
vt 0.334149 0.822147
vt 0.323348 0.836031
vt 0.860113 0.781197
vt 0.841294 0.785597
vt 0.860113 0.785575
vt 0.841294 0.781218
vt 0.924043 0.743945
vt 0.908954 0.743944
vt 0.147100 0.861401
vt 0.101140 0.870306
vt 0.148276 0.875288
vt 0.101140 0.855220
vt 0.848546 0.035465
vt 0.862430 0.035166
vt 0.264919 0.838369
vt 0.287783 0.833985
vt 0.264919 0.833992
vt 0.287783 0.838362
vt 0.739488 0.854336
vt 0.717526 0.858577
vt 0.717856 0.854179
vt 0.232312 0.854498
vt 0.232013 0.858898
vt 0.863685 0.959821
vt 0.863259 0.904588
vt 0.349968 0.844653
vt 0.337650 0.827936
vt 0.337623 0.845582
vt 0.862794 0.688927
vt 0.887773 0.688956
vt 0.148346 0.838525
vt 0.148331 0.834104
vt 0.670356 0.889539
vt 0.674734 0.827473
vt 0.670356 0.825947
vt 0.674734 0.889539
vt 0.924050 0.456693
vt 0.908954 0.416802
vt 0.908960 0.456693
vt 0.924043 0.416802
vt 0.771931 0.827432
vt 0.776310 0.888636
vt 0.776310 0.825932
vt 0.771931 0.888631
vt 0.264919 0.854589
vt 0.264919 0.858968
vt 0.901600 0.416864
vt 0.887711 0.417057
vt 0.893863 0.695647
vt 0.908952 0.695618
vt 0.642291 0.827432
vt 0.646670 0.825932
vt 0.373665 0.854662
vt 0.362726 0.858961
vt 0.373665 0.859040
vt 0.362726 0.854583
vt 0.848550 0.000032
vt 0.862432 0.000000
vt 0.373665 0.838365
vt 0.385228 0.833985
vt 0.373665 0.833989
vt 0.385228 0.838362
vt 0.807384 0.821819
vt 0.823602 0.821819
vt 0.883350 0.695617
vt 0.595976 0.833445
vt 0.571008 0.833445
vt 0.791242 0.823042
vt 0.522981 0.332922
vt 0.473449 0.305096
vt 0.572513 0.360747
vt 0.648615 0.358326
vt 0.493437 0.214619
vt 0.498597 0.232881
vt 0.639719 0.000000
vt 0.689399 0.028339
vt 0.739078 0.056679
vt 0.822974 0.204926
vt 0.795699 0.254764
vt 0.768424 0.304602
vt 0.718381 0.360965
vt 0.123397 0.361136
vt 0.083205 0.139028
vt 0.077948 0.157262
vt 0.320730 0.033952
vt 0.347967 0.084245
vt 0.375204 0.134537
vt 0.249187 0.058554
vt 0.318741 0.332667
vt 0.368212 0.304734
vt 0.269270 0.360600
vt 0.348027 0.214300
vt 0.342907 0.232574
vt 0.201279 -0.000000
vt 0.102044 0.056895
vt 0.151662 0.028447
vt 0.045855 0.255103
vt 0.018472 0.205325
vt 0.073238 0.304881
vt 0.231207 0.870800
vt 0.246100 0.870833
vt 0.232312 0.870849
vt 0.264919 0.870811
vt 0.385228 0.822147
vt 0.373665 0.822150
vt 0.860113 0.797418
vt 0.362726 0.870801
vt 0.373665 0.870880
vt 0.658513 0.907468
vt 0.658513 0.888649
vt 0.658513 0.821875
vt 0.190687 0.822147
vt 0.179124 0.822147
vt 0.148291 0.822147
vt 0.658513 0.889539
vt 0.658513 0.821819
vt 0.287783 0.822147
vt 0.264919 0.822154
vt 0.788152 0.888649
vt 0.788152 0.821875
vt 0.607839 0.915215
vt 0.607816 0.839916
vt 0.891125 0.673927
vt 0.889522 0.474230
vt 0.841294 0.911407
vt 0.609849 0.821819
vt 0.890634 0.516528
vt 0.443324 0.826616
vt 0.337788 0.250847
vt 0.863301 0.836934
vt 0.893863 0.959762
vt 0.878774 0.959791
vt 0.931596 0.296125
vt 0.541634 0.946005
vt 0.511468 0.821819
vt 0.541634 0.821828
vt 0.556718 0.821832
vt 0.977626 0.424093
vt 0.014289 0.822328
vt 0.039262 0.822147
vt 0.053140 0.833046
vt 0.776437 0.615554
vt 0.767959 0.585972
vt 0.754524 0.557810
vt 0.742160 0.514669
vt 0.065888 0.615853
vt 0.074301 0.586252
vt 0.087683 0.558059
vt 0.099953 0.514891
vt 0.123885 0.430694
vt 0.123468 0.422305
vt 0.125643 0.414651
vt 0.130411 0.407731
vt 0.132587 0.400076
vt 0.718045 0.430524
vt 0.718440 0.422133
vt 0.716247 0.414484
vt 0.711468 0.407575
vt 0.709276 0.399925
vt 0.110215 0.462661
vt 0.113841 0.449904
vt 0.121709 0.438348
vt 0.731777 0.462460
vt 0.728123 0.449711
vt 0.720237 0.438173
vt 0.731199 0.476421
vt 0.110831 0.476620
vt 0.791158 0.821819
vt 0.788099 0.811146
vt 0.015536 0.811889
vt -0.000000 0.833431
vt 0.489305 0.823697
vt 0.037338 0.735185
vt 0.042558 0.716820
vt 0.047778 0.698456
vt 0.032118 0.753550
vt 0.066299 0.633294
vt 0.644851 0.382038
vt 0.805254 0.734826
vt 0.799994 0.716473
vt 0.794735 0.698119
vt 0.810514 0.753179
vt 0.776072 0.632998
vt 0.511468 0.839782
vt 0.511468 0.821832
vt 0.999752 0.433986
vt 1.000000 0.417139
vt 0.908956 0.279760
vt 0.908959 0.298732
vt 0.466131 0.840512
vt 0.466043 0.821819
vt 0.511468 0.857731
vt 0.931630 0.400774
vt 0.908985 0.377445
vt 0.908998 0.416802
vt 0.908956 0.218846
vt 0.908954 0.260787
vt 0.466218 0.859206
vt 0.466102 0.952305
vt 0.466043 0.998854
vt 0.466160 0.905755
vt 0.908972 0.338089
vt 0.931619 0.365891
vt 0.999670 0.501889
vt 0.999505 0.450832
vt 0.908957 0.176905
vt 0.908959 0.134964
vt 0.999835 0.552946
vt 1.000000 0.604004
vt 0.714140 0.274892
vt 0.730529 0.628711
vt 0.587474 0.687048
vt 0.650210 0.669068
vt 0.616656 0.788876
vt 0.420776 0.254858
vt 0.238845 0.306714
vt 0.293553 0.113715
vt 0.172107 0.329739
vt 0.255018 0.686933
vt 0.192243 0.669090
vt 0.226057 0.788824
vt 0.841294 0.134819
vt 0.954743 0.603666
vt 0.385228 0.870792
vt 0.901699 0.035465
vt 0.362726 0.822147
vt 0.609849 0.821818
vt 0.863685 0.695706
vt 0.739488 0.821818
vt 0.954228 0.134958
vt 0.954222 0.416803
vt 0.707178 0.821819
vt 0.954248 0.450495
vt 0.362726 0.845368
vt 0.716633 0.821818
vt 0.901699 0.277840
vt 0.287783 0.870792
vt 0.831497 0.761717
vt 0.148276 0.822147
vt 0.841294 0.748776
vt 0.323050 0.875300
vt 0.469722 0.976284
vt 0.232312 0.822185
vt 0.420951 0.859364
vt 0.788152 0.911407
vt 0.190672 0.870792
vt 0.609849 0.907412
vt 0.190741 0.822147
vt 0.559195 0.915215
vt 0.954222 0.260781
vt 0.420776 0.999012
vt 0.305540 0.822163
vt 0.287783 0.870812
vt 0.908954 0.919016
vt 0.466218 0.857718
vt 0.397077 0.875300
vt 0.841294 0.836703
vt 0.001432 0.796339
vt 0.841294 0.734468
vt -0.000000 0.851179
vt 0.055083 0.875299
vt 0.051624 0.822147
vt 0.827223 0.811483
vt 0.408927 0.875300
vt 0.858152 0.861664
vt 0.420776 0.886398
vt 0.000000 0.783609
vt 0.852424 0.850703
vt 0.707178 0.886055
vt 0.848582 0.487182
vt 0.362726 0.867664
vt 0.901699 0.115014
vt 0.687309 0.475204
vt 0.842360 0.514057
vt 0.677238 0.433941
vt 0.848582 0.455807
vt 0.844779 0.471940
vt 0.862994 0.882306
vt 0.901699 0.067284
vt 0.848582 0.609855
vt 0.841294 0.671376
vt 0.847557 0.863193
vt 0.349968 0.845582
vt 0.858152 0.797440
vt 0.511468 0.945996
vt 0.349968 0.822147
vt 0.867129 0.695599
vt 0.556718 0.821819
vt 0.420776 0.821977
vt 0.954228 0.298726
vt 0.954743 0.416802
vt 0.466218 0.821819
vt 0.931607 0.331008
s 0
usemtl Material
f 397/1/1 2/2/1 411/3/1
f 7/4/2 397/1/2 398/5/2
f 9/6/2 398/5/2 399/7/2
f 8/8/3 462/9/3 460/10/3
f 13/11/4 400/12/4 401/13/4
f 15/14/4 401/13/4 402/15/4
f 17/16/4 402/15/4 403/17/4
f 471/18/5 26/19/5 465/20/5
f 404/21/6 19/22/6 21/23/6
f 404/21/6 23/24/6 405/25/6
f 406/26/6 23/24/6 25/27/6
f 28/28/7 407/29/7 408/30/7
f 32/31/7 409/32/7 410/33/7
f 407/29/8 29/34/8 408/30/8
f 408/30/8 31/35/8 409/32/8
f 409/32/8 33/36/8 410/33/8
f 470/37/9 24/38/9 465/39/9
f 533/40/10 2/2/10 490/41/10
f 530/42/11 40/43/11 483/44/11
f 491/45/12 38/46/12 481/47/12
f 162/48/12 482/49/12 508/50/12
f 51/51/12 484/52/12 486/53/12
f 68/54/12 52/55/12 71/56/12
f 382/57/12 54/58/12 384/59/12
f 54/58/12 66/60/12 64/61/12
f 383/62/12 45/63/12 381/64/12
f 384/59/12 64/61/12 386/65/12
f 70/66/12 43/67/12 69/68/12
f 71/56/12 62/69/12 73/70/12
f 40/43/12 485/71/12 483/44/12
f 61/72/12 486/53/12 488/73/12
f 50/74/12 487/75/12 485/71/12
f 60/76/12 488/73/12 487/75/12
f 72/77/12 53/78/12 70/66/12
f 385/79/12 55/80/12 383/62/12
f 386/65/12 65/81/12 385/79/12
f 65/81/12 57/82/12 55/80/12
f 64/61/12 67/83/12 65/81/12
f 66/60/12 72/77/12 67/83/12
f 67/83/12 70/66/12 57/82/12
f 56/84/12 73/70/12 66/60/12
f 57/82/12 69/68/12 44/85/12
f 47/86/12 71/56/12 56/84/12
f 178/87/12 489/88/12 512/89/12
f 463/90/13 11/91/13 457/92/13
f 30/93/7 408/30/7 409/32/7
f 491/45/14 411/3/14 533/40/14
f 413/94/15 148/95/15 80/96/15
f 413/94/15 82/97/15 414/98/15
f 414/98/15 76/99/15 415/100/15
f 446/101/16 57/102/16 44/103/16
f 416/104/17 89/105/17 417/106/17
f 417/106/17 91/107/17 418/108/17
f 418/108/17 85/109/17 419/110/17
f 472/111/18 100/112/18 423/113/18
f 420/114/19 150/115/19 428/116/19
f 96/117/20 420/114/20 421/118/20
f 422/119/20 96/117/20 421/118/20
f 426/120/21 474/121/21 480/122/21
f 479/123/22 33/36/22 473/124/22
f 102/125/23 423/113/23 424/126/23
f 425/127/23 102/125/23 424/126/23
f 84/128/23 425/127/23 426/120/23
f 464/129/24 86/130/24 459/131/24
f 534/132/25 148/95/25 427/133/25
f 527/134/26 107/135/26 215/136/26
f 502/137/27 116/138/27 149/139/27
f 493/140/27 166/141/27 506/142/27
f 495/143/27 117/144/27 497/145/27
f 132/146/27 121/147/27 140/148/27
f 134/149/27 388/150/27 390/151/27
f 145/152/27 134/149/27 144/153/27
f 120/154/27 389/155/27 387/156/27
f 144/153/27 390/151/27 392/157/27
f 119/158/27 139/159/27 123/160/27
f 143/161/27 140/148/27 147/162/27
f 496/163/27 107/135/27 494/164/27
f 497/145/27 131/165/27 499/166/27
f 498/167/27 130/168/27 496/163/27
f 499/166/27 142/169/27 498/167/27
f 118/170/27 146/171/27 139/159/27
f 126/172/27 391/173/27 389/155/27
f 135/174/27 392/157/27 391/173/27
f 127/175/27 135/174/27 126/172/27
f 138/176/27 144/153/27 135/174/27
f 146/171/27 145/152/27 138/176/27
f 139/159/27 138/176/27 127/175/27
f 147/162/27 137/177/27 145/152/27
f 123/160/27 127/175/27 124/178/27
f 140/148/27 136/179/27 137/177/27
f 500/180/27 182/181/27 510/182/27
f 463/90/28 10/183/28 400/12/28
f 449/184/29 381/185/29 45/186/29
f 475/187/30 410/33/30 479/123/30
f 89/188/31 535/189/31 536/190/31
f 146/191/32 220/192/32 221/193/32
f 102/194/33 537/195/33 538/196/33
f 88/197/34 224/198/34 225/199/34
f 229/200/35 79/201/35 228/202/35
f 143/203/36 232/204/36 233/205/36
f 237/206/37 132/207/37 236/208/37
f 241/209/38 103/210/38 240/211/38
f 149/212/39 244/213/39 245/214/39
f 133/215/37 248/216/37 220/217/37
f 539/218/31 89/188/31 536/190/31
f 251/219/37 134/220/37 250/221/37
f 104/222/33 540/223/33 537/195/33
f 90/224/34 254/225/34 224/198/34
f 137/226/16 256/227/16 257/228/16
f 476/229/40 541/230/40 553/231/40
f 541/230/31 91/232/31 539/218/31
f 136/233/41 260/234/41 256/235/41
f 215/236/42 262/237/42 380/238/42
f 119/239/43 266/240/43 267/241/43
f 127/242/43 270/243/43 271/244/43
f 108/245/44 274/246/44 275/247/44
f 134/248/32 257/249/32 250/250/32
f 168/251/12 35/252/12 160/253/12
f 198/254/45 229/200/45 368/255/45
f 95/256/46 284/257/46 285/258/46
f 228/259/47 78/260/47 288/261/47
f 166/262/48 290/263/48 332/264/48
f 543/265/49 96/266/49 542/267/49
f 78/268/50 294/269/50 288/270/50
f 147/271/37 221/272/37 232/273/37
f 321/274/44 110/275/44 279/276/44
f 97/277/46 285/258/46 295/278/46
f 82/279/51 544/280/51 545/281/51
f 96/266/49 546/282/49 542/267/49
f 81/283/50 298/284/50 294/269/50
f 128/285/44 300/286/44 301/287/44
f 314/288/52 462/9/52 461/289/52
f 141/290/44 304/291/44 300/286/44
f 118/292/37 267/293/37 248/216/37
f 547/294/51 82/279/51 545/281/51
f 182/295/48 263/296/48 340/297/48
f 387/298/53 291/299/53 396/300/53
f 55/301/37 449/302/37 45/303/37
f 218/304/44 281/305/44 374/306/44
f 121/307/41 237/308/41 260/234/41
f 478/309/32 32/310/32 475/311/32
f 132/207/37 233/312/37 236/208/37
f 123/313/43 312/314/43 266/240/43
f 388/315/41 251/316/41 394/317/41
f 468/318/54 548/319/54 552/320/54
f 451/321/16 371/322/16 369/323/16
f 80/324/51 549/325/51 544/280/51
f 126/326/37 305/327/37 270/328/37
f 101/329/38 309/330/38 315/331/38
f 312/332/16 127/333/16 271/334/16
f 458/335/55 547/294/55 551/336/55
f 93/337/56 245/338/56 284/257/56
f 111/339/44 301/287/44 278/340/44
f 548/319/33 102/194/33 538/196/33
f 86/341/34 225/199/34 314/288/34
f 550/342/49 94/343/49 543/265/49
f 129/344/44 275/247/44 304/291/44
f 103/210/38 315/331/38 240/211/38
f 501/345/57 550/342/57 554/346/57
f 170/347/16 318/348/16 328/349/16
f 280/350/36 151/351/36 36/352/36
f 169/353/27 110/354/27 163/355/27
f 278/356/32 154/357/32 111/358/32
f 532/359/36 158/360/36 321/361/36
f 323/362/58 39/363/58 289/364/58
f 504/365/27 115/366/27 493/140/27
f 503/367/12 36/368/12 482/49/12
f 154/369/27 164/370/27 111/371/27
f 170/372/27 163/355/27 164/370/27
f 153/373/16 326/374/16 319/375/16
f 336/376/32 170/377/32 328/378/32
f 114/379/48 330/380/48 291/381/48
f 165/382/48 332/264/48 330/380/48
f 151/383/12 159/384/12 36/368/12
f 167/385/12 160/253/12 159/384/12
f 505/386/27 114/387/27 495/143/27
f 506/142/27 165/388/27 505/386/27
f 41/389/12 507/390/12 484/52/12
f 161/391/12 508/50/12 507/390/12
f 173/392/16 336/393/16 334/394/16
f 174/395/27 169/353/27 170/372/27
f 171/396/59 168/397/59 167/398/59
f 333/399/36 167/400/36 325/401/36
f 206/402/60 338/403/60 360/404/60
f 190/405/61 340/406/61 352/407/61
f 112/408/44 342/409/44 281/305/44
f 188/410/62 344/411/62 348/412/62
f 509/413/27 206/414/27 524/415/27
f 516/416/63 182/181/63 190/417/63
f 202/418/12 511/419/12 520/420/12
f 514/421/64 178/87/64 512/89/64
f 177/422/65 513/423/65 511/419/65
f 185/424/12 514/421/12 513/423/12
f 515/425/66 181/426/66 509/413/66
f 516/416/27 189/427/27 515/425/27
f 342/409/67 187/428/67 346/429/67
f 187/428/68 348/412/68 346/429/68
f 338/403/69 189/430/69 350/431/69
f 189/430/70 352/432/70 350/431/70
f 38/46/12 517/433/12 481/47/12
f 199/434/71 518/435/71 517/433/71
f 200/436/12 519/437/12 518/435/12
f 519/437/72 202/418/72 520/420/72
f 521/438/27 116/138/27 492/439/27
f 522/440/73 203/441/73 521/438/73
f 523/442/27 204/443/27 522/440/27
f 523/442/74 206/414/74 205/444/74
f 116/445/48 354/446/48 244/213/48
f 354/446/75 204/447/75 356/448/75
f 204/447/76 358/449/76 356/448/76
f 205/450/77 360/451/77 358/452/77
f 180/453/44 362/454/44 344/411/44
f 362/454/78 196/455/78 364/456/78
f 196/455/79 366/457/79 364/456/79
f 197/458/80 368/255/80 366/457/80
f 274/246/81 216/459/81 370/460/81
f 216/459/82 372/461/82 370/460/82
f 217/462/83 374/306/83 372/461/83
f 106/463/48 376/464/48 263/296/48
f 376/464/84 214/465/84 378/466/84
f 214/465/85 380/467/85 378/466/85
f 525/468/27 106/469/27 500/180/27
f 526/470/86 213/471/86 525/468/86
f 527/134/27 214/472/27 526/470/27
f 74/473/12 528/474/12 489/88/12
f 207/475/87 529/476/87 528/474/87
f 208/477/12 530/42/12 529/476/12
f 377/478/88 209/479/88 208/480/88
f 378/466/37 430/481/37 429/482/37
f 375/483/89 208/480/89 207/484/89
f 375/483/90 429/482/90 377/478/90
f 264/485/58 207/484/58 74/486/58
f 263/296/37 375/483/37 264/485/37
f 211/487/91 373/488/91 212/489/91
f 452/490/92 374/306/92 373/488/92
f 369/323/93 211/487/93 210/491/93
f 451/321/16 372/461/16 452/490/16
f 273/492/94 210/491/94 34/493/94
f 273/492/95 451/321/95 369/323/95
f 193/494/96 367/495/96 194/496/96
f 456/497/97 368/255/97 367/495/97
f 363/498/98 193/494/98 192/499/98
f 364/456/16 456/497/16 455/500/16
f 361/501/99 192/499/99 191/502/99
f 361/501/100 455/500/100 363/498/100
f 343/503/101 191/502/101 176/504/101
f 344/411/16 361/501/16 343/503/16
f 201/505/102 359/506/102 202/507/102
f 307/508/103 360/404/103 359/509/103
f 355/510/104 201/511/104 200/512/104
f 356/448/37 307/508/37 308/513/37
f 353/514/105 200/512/105 199/515/105
f 353/514/106 308/513/106 355/510/106
f 243/516/58 199/515/58 38/517/58
f 244/213/37 353/514/37 243/516/37
f 349/518/107 186/519/107 185/520/107
f 350/431/37 1/521/37 77/522/37
f 337/523/108 185/520/108 177/524/108
f 337/523/109 77/522/109 349/518/109
f 345/525/110 184/526/110 183/527/110
f 346/429/16 454/528/16 453/529/16
f 341/530/111 183/527/111 175/531/111
f 341/530/112 453/529/112 345/525/112
f 184/526/113 343/503/113 176/504/113
f 454/528/114 344/411/114 343/503/114
f 282/532/101 175/531/101 75/533/101
f 281/305/16 341/530/16 282/532/16
f 186/534/115 339/535/115 178/536/115
f 1/521/116 340/297/116 339/537/116
f 359/509/58 177/524/58 202/538/58
f 360/404/37 337/523/37 359/509/37
f 173/539/36 326/540/36 169/541/36
f 334/542/36 325/401/36 326/540/36
f 333/543/16 172/544/16 171/545/16
f 334/394/16 335/546/16 333/543/16
f 329/547/58 162/548/58 161/549/58
f 330/380/37 331/550/37 329/547/37
f 292/551/58 161/549/58 41/552/58
f 291/381/37 329/547/37 292/551/37
f 168/553/32 335/554/32 327/555/32
f 335/554/32 328/378/32 327/555/32
f 320/556/16 167/557/16 151/558/16
f 319/375/16 325/559/16 320/556/16
f 157/560/48 290/263/48 115/561/48
f 324/562/37 289/364/37 290/263/37
f 531/563/36 156/564/36 503/565/36
f 532/359/36 322/566/36 531/563/36
f 152/567/32 277/568/32 35/569/32
f 317/570/32 278/356/32 277/568/32
f 153/571/36 279/572/36 110/573/36
f 319/574/36 280/350/36 279/572/36
f 327/575/16 152/576/16 168/577/16
f 328/349/16 317/578/16 327/575/16
f 239/579/38 28/580/38 30/581/38
f 240/211/38 316/582/38 239/579/38
f 303/583/101 49/584/101 59/585/101
f 304/291/16 276/586/16 303/583/16
f 10/587/34 226/588/34 12/589/34
f 313/590/34 225/199/34 226/588/34
f 277/591/101 48/592/101 35/593/101
f 278/340/16 302/594/16 277/591/16
f 20/595/117 246/596/117 18/597/117
f 283/598/56 245/338/56 246/596/56
f 311/599/16 447/600/16 446/101/16
f 312/332/16 272/601/16 311/599/16
f 316/582/38 26/602/38 28/580/38
f 315/331/38 310/603/38 316/582/38
f 448/604/37 306/605/37 449/302/37
f 270/328/37 306/605/37 269/606/37
f 447/607/29 55/608/29 57/609/29
f 455/500/16 365/610/16 363/498/16
f 393/611/118 432/612/118 431/613/118
f 394/317/32 252/614/32 393/611/32
f 265/615/29 446/616/29 445/617/29
f 266/240/36 311/618/36 265/615/36
f 235/619/37 439/620/37 438/621/37
f 236/208/37 234/622/37 235/619/37
f 461/289/3 83/623/3 459/624/3
f 474/625/32 241/626/32 477/627/32
f 259/628/118 437/629/118 436/630/118
f 260/234/32 238/631/32 259/628/32
f 373/488/101 75/533/101 212/489/101
f 374/306/16 282/532/16 373/488/16
f 445/617/29 44/632/29 69/633/29
f 453/529/16 347/634/16 345/525/16
f 450/635/119 395/636/119 292/637/119
f 395/636/120 291/299/120 292/637/120
f 339/537/58 74/486/58 178/638/58
f 340/297/37 264/485/37 339/537/37
f 443/639/37 268/640/37 444/641/37
f 248/216/37 268/640/37 247/642/37
f 299/643/101 59/585/101 58/644/101
f 300/286/16 303/583/16 299/643/16
f 470/37/121 309/330/121 469/645/121
f 478/309/32 254/646/32 477/627/32
f 302/594/101 58/644/101 48/592/101
f 301/287/16 299/643/16 302/594/16
f 293/647/50 8/8/50 6/648/50
f 294/269/50 297/649/50 293/647/50
f 296/650/46 22/651/46 24/652/46
f 295/278/46 286/653/46 296/650/46
f 156/654/101 280/655/101 36/656/101
f 322/657/16 279/276/16 280/655/16
f 231/658/37 441/659/37 440/660/37
f 232/273/37 222/661/37 231/658/37
f 287/662/50 6/648/50 4/663/50
f 288/270/50 293/647/50 287/662/50
f 331/550/58 39/363/58 162/548/58
f 332/264/37 289/364/37 331/550/37
f 227/664/122 4/665/122 3/666/122
f 228/259/47 287/667/47 227/664/47
f 286/653/46 20/595/46 22/651/46
f 285/258/46 283/598/46 286/653/46
f 367/495/101 37/668/101 194/496/101
f 368/255/16 230/669/16 367/495/16
f 249/670/32 434/671/32 433/672/32
f 250/250/32 258/673/32 249/670/32
f 276/586/101 34/493/101 49/584/101
f 275/247/16 273/492/16 276/586/16
f 272/674/29 448/675/29 447/607/29
f 271/244/36 269/676/36 272/674/36
f 268/677/29 445/617/29 444/678/29
f 267/241/36 265/615/36 268/677/36
f 97/679/9 469/645/9 467/680/9
f 209/681/123 261/682/123 40/683/123
f 430/481/124 262/684/124 261/685/124
f 255/686/118 436/630/118 435/687/118
f 256/235/32 259/628/32 255/686/32
f 434/688/16 255/689/16 435/690/16
f 257/228/16 255/689/16 258/691/16
f 223/692/34 16/693/34 14/694/34
f 224/198/34 253/695/34 223/692/34
f 252/696/37 433/697/37 432/698/37
f 251/219/37 249/699/37 252/696/37
f 219/700/37 443/639/37 442/701/37
f 220/217/37 247/642/37 219/700/37
f 18/702/125 243/516/125 38/517/125
f 245/214/126 243/516/126 246/703/126
f 242/704/38 30/581/38 32/705/38
f 241/209/38 239/579/38 242/704/38
f 238/706/37 438/621/37 437/707/37
f 237/206/37 235/619/37 238/706/37
f 234/708/36 440/709/36 439/710/36
f 233/205/36 231/711/36 234/708/36
f 230/669/127 3/712/127 37/668/127
f 229/200/128 227/713/128 230/669/128
f 226/588/34 14/694/34 12/589/34
f 225/199/34 223/692/34 226/588/34
f 222/714/32 442/715/32 441/716/32
f 221/193/32 219/717/32 222/714/32
f 305/718/36 395/636/36 306/719/36
f 306/719/29 450/635/29 449/184/29
f 262/684/129 393/720/129 261/685/129
f 261/721/130 393/611/130 431/613/130
f 262/722/131 388/315/131 394/317/131
f 120/723/43 396/300/43 305/718/43
f 391/173/132 142/169/132 131/165/132
f 389/155/132 131/165/132 117/144/132
f 392/157/132 130/168/132 142/169/132
f 387/156/132 117/144/132 114/387/132
f 390/151/132 107/135/132 130/168/132
f 60/76/133 385/79/133 61/72/133
f 61/72/133 383/62/133 51/51/133
f 50/74/133 386/65/133 60/76/133
f 51/51/133 381/64/133 41/389/133
f 40/43/133 384/59/133 50/74/133
f 22/724/134 406/26/134 24/725/134
f 22/724/134 404/21/134 405/25/134
f 20/726/135 412/727/135 404/21/135
f 27/728/136 471/18/136 466/729/136
f 16/730/137 402/15/137 14/731/137
f 14/731/137 401/13/137 12/732/137
f 12/732/137 400/12/137 10/183/137
f 8/733/138 398/5/138 6/734/138
f 6/734/138 397/1/138 4/735/138
f 4/735/139 411/3/139 3/736/139
f 502/137/140 427/133/140 79/737/140
f 87/738/141 464/129/141 458/739/141
f 105/740/142 425/127/142 103/741/142
f 425/127/142 101/742/142 103/741/142
f 424/126/142 100/112/142 101/742/142
f 84/128/143 480/122/143 476/743/143
f 422/119/144 95/744/144 97/745/144
f 95/744/144 420/114/144 93/746/144
f 93/746/145 428/116/145 149/139/145
f 472/111/146 99/747/146 468/748/146
f 92/749/147 418/108/147 419/110/147
f 88/750/147 418/108/147 90/751/147
f 86/130/147 417/106/147 88/750/147
f 81/752/148 415/100/148 83/753/148
f 78/754/148 414/98/148 81/752/148
f 78/754/149 427/133/149 413/94/149
f 444/678/29 69/633/29 43/755/29
f 53/756/37 444/641/37 43/757/37
f 442/701/37 53/756/37 63/758/37
f 441/716/32 63/759/32 72/760/32
f 440/660/37 72/571/37 73/761/37
f 439/710/36 73/762/36 62/763/36
f 438/621/37 62/764/37 52/765/37
f 437/707/37 52/765/37 42/766/37
f 436/630/118 42/767/118 68/768/118
f 435/687/118 68/768/118 47/769/118
f 56/770/16 435/690/16 47/771/16
f 433/672/32 56/772/32 54/773/32
f 432/698/37 54/774/37 46/775/37
f 431/613/118 46/776/118 382/777/118
f 429/482/37 379/778/37 377/478/37
f 376/464/90 429/482/90 375/483/90
f 371/322/92 452/490/92 373/488/92
f 365/610/97 456/497/97 367/495/97
f 362/454/100 455/500/100 361/501/100
f 347/634/114 454/528/114 343/503/114
f 342/409/112 453/529/112 341/530/112
f 354/446/106 308/513/106 353/514/106
f 308/513/37 357/779/37 355/510/37
f 357/779/103 307/508/103 359/509/103
f 381/185/36 292/637/36 41/780/36
f 274/246/95 451/321/95 273/492/95
f 379/778/124 430/481/124 261/685/124
f 261/721/32 382/777/32 40/781/32
f 338/403/109 77/522/109 337/523/109
f 351/782/116 1/521/116 339/537/116
f 77/522/37 351/782/37 349/518/37
f 76/99/150 464/129/150 415/100/150
f 86/341/52 461/289/52 459/624/52
f 535/783/55 458/335/55 551/336/55
f 461/289/3 297/649/3 298/284/3
f 8/733/151 463/90/151 399/7/151
f 464/129/152 83/753/152 415/100/152
f 9/6/13 463/90/13 457/92/13
f 460/10/52 313/590/52 10/587/52
f 98/784/146 472/111/146 468/748/146
f 25/27/153 471/18/153 406/26/153
f 100/785/121 469/645/121 309/330/121
f 296/786/9 469/645/9 295/787/9
f 546/788/54 468/318/54 552/320/54
f 97/745/154 472/111/154 422/119/154
f 310/603/121 465/39/121 26/602/121
f 471/18/155 24/725/155 406/26/155
f 85/109/143 480/122/143 419/110/143
f 242/789/32 477/627/32 241/626/32
f 92/790/32 477/627/32 254/646/32
f 253/791/32 475/311/32 16/792/32
f 540/793/40 476/229/40 553/231/40
f 403/17/30 475/187/30 479/123/30
f 17/16/22 479/123/22 473/124/22
f 419/110/21 474/121/21 92/749/21
f 428/116/140 502/137/140 149/139/140
f 324/794/36 531/563/36 323/795/36
f 155/796/36 531/563/36 503/565/36
f 529/476/12 210/797/12 211/798/12
f 212/799/87 529/476/87 211/798/87
f 489/88/12 212/799/12 75/800/12
f 216/801/27 526/470/27 217/802/27
f 218/803/86 526/470/86 525/468/86
f 218/803/27 500/180/27 112/804/27
f 195/805/74 523/442/74 196/806/74
f 196/806/27 522/440/27 197/807/27
f 198/808/73 522/440/73 521/438/73
f 198/808/27 492/439/27 113/809/27
f 519/437/72 191/810/72 192/811/72
f 518/435/12 192/811/12 193/812/12
f 194/813/71 518/435/71 193/812/71
f 481/47/12 194/813/12 37/814/12
f 187/815/27 515/425/27 188/816/27
f 180/817/66 515/425/66 509/413/66
f 513/423/12 183/818/12 184/819/12
f 176/820/65 513/423/65 184/819/65
f 514/421/64 175/821/64 183/818/64
f 520/420/12 176/820/12 191/810/12
f 179/822/63 516/416/63 187/815/63
f 180/817/27 524/415/27 195/805/27
f 507/390/12 159/384/12 160/253/12
f 484/52/12 160/253/12 35/252/12
f 163/355/27 505/386/27 164/370/27
f 164/370/27 495/143/27 111/371/27
f 155/823/12 482/49/12 39/824/12
f 158/825/27 493/140/27 110/354/27
f 157/826/36 532/359/36 324/794/36
f 549/827/57 501/345/57 554/346/57
f 112/804/27 510/182/27 179/822/27
f 141/828/27 498/167/27 129/829/27
f 129/829/27 496/163/27 108/830/27
f 128/831/27 499/166/27 141/828/27
f 108/830/27 494/164/27 109/832/27
f 111/371/27 497/145/27 128/831/27
f 110/354/27 506/142/27 163/355/27
f 113/809/27 502/137/27 79/737/27
f 109/832/26 527/134/26 216/801/26
f 150/115/25 534/132/25 428/116/25
f 491/45/14 412/727/14 18/833/14
f 512/89/12 75/800/12 175/821/12
f 487/75/12 58/834/12 59/835/12
f 485/71/12 59/835/12 49/836/12
f 488/73/12 48/837/12 58/834/12
f 483/44/12 49/836/12 34/838/12
f 486/53/12 35/252/12 48/837/12
f 508/50/12 36/368/12 159/384/12
f 491/45/12 37/814/12 3/736/12
f 530/42/11 34/838/11 210/797/11
f 533/40/10 19/22/10 412/727/10
f 549/827/156 490/839/156 2/840/156
f 540/793/157 473/841/157 33/842/157
f 546/788/158 466/843/158 25/844/158
f 535/783/159 457/845/159 11/846/159
f 490/839/156 550/342/156 19/847/156
f 550/848/160 21/849/160 19/850/160
f 548/319/161 29/851/161 27/852/161
f 457/845/159 547/294/159 9/853/159
f 5/854/162 549/325/162 2/855/162
f 466/843/158 548/319/158 27/852/158
f 547/294/162 7/856/162 9/853/162
f 23/857/160 546/788/160 25/844/160
f 7/856/162 544/280/162 5/854/162
f 543/858/160 23/857/160 21/849/160
f 541/230/163 15/859/163 17/860/163
f 473/841/157 541/230/157 17/860/157
f 31/861/161 540/223/161 33/862/161
f 539/218/163 13/863/163 15/859/163
f 29/851/161 537/195/161 31/861/161
f 13/863/163 535/189/163 11/864/163
f 397/1/2 5/865/2 2/2/2
f 7/4/2 5/865/2 397/1/2
f 9/6/2 7/4/2 398/5/2
f 8/8/3 297/649/3 462/9/3
f 13/11/4 11/91/4 400/12/4
f 15/14/4 13/11/4 401/13/4
f 17/16/4 15/14/4 402/15/4
f 471/18/164 407/29/164 26/19/164
f 404/21/165 412/727/165 19/22/165
f 404/21/6 21/23/6 23/24/6
f 406/26/6 405/25/6 23/24/6
f 28/28/7 26/19/7 407/29/7
f 32/31/7 30/93/7 409/32/7
f 407/29/8 27/728/8 29/34/8
f 408/30/8 29/34/8 31/35/8
f 409/32/8 31/35/8 33/36/8
f 470/37/9 296/786/9 24/38/9
f 533/40/10 411/3/10 2/2/10
f 530/42/11 209/866/11 40/43/11
f 491/45/12 18/833/12 38/46/12
f 162/48/12 39/824/12 482/49/12
f 51/51/12 41/389/12 484/52/12
f 68/54/12 42/867/12 52/55/12
f 382/57/12 46/868/12 54/58/12
f 54/58/12 56/84/12 66/60/12
f 383/62/12 55/80/12 45/63/12
f 384/59/12 54/58/12 64/61/12
f 70/66/12 53/78/12 43/67/12
f 71/56/12 52/55/12 62/69/12
f 40/43/12 50/74/12 485/71/12
f 61/72/12 51/51/12 486/53/12
f 50/74/12 60/76/12 487/75/12
f 60/76/12 61/72/12 488/73/12
f 72/77/12 63/869/12 53/78/12
f 385/79/12 65/81/12 55/80/12
f 386/65/12 64/61/12 65/81/12
f 65/81/12 67/83/12 57/82/12
f 64/61/12 66/60/12 67/83/12
f 66/60/12 73/70/12 72/77/12
f 67/83/12 72/77/12 70/66/12
f 56/84/12 71/56/12 73/70/12
f 57/82/12 70/66/12 69/68/12
f 47/86/12 68/54/12 71/56/12
f 178/87/12 74/473/12 489/88/12
f 463/90/166 400/12/166 11/91/166
f 30/93/7 28/28/7 408/30/7
f 491/45/14 3/736/14 411/3/14
f 413/94/167 427/133/167 148/95/167
f 413/94/15 80/96/15 82/97/15
f 414/98/15 82/97/15 76/99/15
f 446/101/16 447/600/16 57/102/16
f 416/104/17 87/738/17 89/105/17
f 417/106/17 89/105/17 91/107/17
f 418/108/17 91/107/17 85/109/17
f 472/111/168 467/870/168 100/112/168
f 420/114/20 94/871/20 150/115/20
f 96/117/20 94/871/20 420/114/20
f 422/119/20 98/784/20 96/117/20
f 426/120/21 105/740/21 474/121/21
f 479/123/22 410/33/22 33/36/22
f 102/125/23 99/747/23 423/113/23
f 425/127/23 104/872/23 102/125/23
f 84/128/23 104/872/23 425/127/23
f 464/129/169 416/104/169 86/130/169
f 534/132/25 501/873/25 148/95/25
f 527/134/26 494/164/26 107/135/26
f 502/137/27 492/439/27 116/138/27
f 493/140/27 115/366/27 166/141/27
f 495/143/27 114/387/27 117/144/27
f 132/146/27 122/874/27 121/147/27
f 134/149/27 125/875/27 388/150/27
f 145/152/27 137/177/27 134/149/27
f 120/154/27 126/172/27 389/155/27
f 144/153/27 134/149/27 390/151/27
f 119/158/27 118/170/27 139/159/27
f 143/161/27 132/146/27 140/148/27
f 496/163/27 130/168/27 107/135/27
f 497/145/27 117/144/27 131/165/27
f 498/167/27 142/169/27 130/168/27
f 499/166/27 131/165/27 142/169/27
f 118/170/27 133/876/27 146/171/27
f 126/172/27 135/174/27 391/173/27
f 135/174/27 144/153/27 392/157/27
f 127/175/27 138/176/27 135/174/27
f 138/176/27 145/152/27 144/153/27
f 146/171/27 147/162/27 145/152/27
f 139/159/27 146/171/27 138/176/27
f 147/162/27 140/148/27 137/177/27
f 123/160/27 139/159/27 127/175/27
f 140/148/27 121/147/27 136/179/27
f 500/180/27 106/469/27 182/181/27
f 463/90/170 460/877/170 10/183/170
f 449/184/29 450/635/29 381/185/29
f 475/187/30 32/31/30 410/33/30
f 89/188/31 87/878/31 535/189/31
f 146/191/32 133/879/32 220/192/32
f 102/194/33 104/222/33 537/195/33
f 88/197/34 90/224/34 224/198/34
f 229/200/171 113/880/171 79/201/171
f 143/203/36 147/881/36 232/204/36
f 237/206/37 122/882/37 132/207/37
f 241/209/38 105/883/38 103/210/38
f 149/212/172 116/445/172 244/213/172
f 133/215/37 118/292/37 248/216/37
f 539/218/31 91/232/31 89/188/31
f 251/219/37 125/884/37 134/220/37
f 104/222/33 84/885/33 540/223/33
f 90/224/34 92/886/34 254/225/34
f 137/226/16 136/887/16 256/227/16
f 476/229/40 85/888/40 541/230/40
f 541/230/31 85/888/31 91/232/31
f 136/233/41 121/307/41 260/234/41
f 215/236/173 107/889/173 262/237/173
f 119/239/43 123/313/43 266/240/43
f 127/242/43 126/890/43 270/243/43
f 108/245/44 109/891/44 274/246/44
f 134/248/32 137/892/32 257/249/32
f 168/251/12 152/893/12 35/252/12
f 198/254/44 113/880/44 229/200/44
f 95/256/46 93/337/46 284/257/46
f 228/259/174 79/894/174 78/260/174
f 166/262/48 115/561/48 290/263/48
f 543/265/49 94/343/49 96/266/49
f 78/268/50 81/283/50 294/269/50
f 147/271/37 146/895/37 221/272/37
f 321/274/44 158/896/44 110/275/44
f 97/277/46 95/256/46 285/258/46
f 82/279/51 80/324/51 544/280/51
f 96/266/49 98/897/49 546/282/49
f 81/283/50 83/623/50 298/284/50
f 128/285/44 141/290/44 300/286/44
f 314/288/52 313/590/52 462/9/52
f 141/290/44 129/344/44 304/291/44
f 118/292/37 119/898/37 267/293/37
f 547/294/51 76/899/51 82/279/51
f 182/295/48 106/463/48 263/296/48
f 387/298/36 114/900/36 291/299/36
f 55/301/37 448/604/37 449/302/37
f 218/304/44 112/408/44 281/305/44
f 121/307/41 122/901/41 237/308/41
f 478/309/32 242/789/32 32/310/32
f 132/207/37 143/902/37 233/312/37
f 123/313/43 124/903/43 312/314/43
f 388/315/41 125/904/41 251/316/41
f 468/318/54 99/905/54 548/319/54
f 451/321/16 452/490/16 371/322/16
f 80/324/51 148/906/51 549/325/51
f 126/326/37 120/907/37 305/327/37
f 101/329/38 100/785/38 309/330/38
f 312/332/16 124/908/16 127/333/16
f 458/335/55 76/899/55 547/294/55
f 93/337/175 149/909/175 245/338/175
f 111/339/44 128/285/44 301/287/44
f 548/319/33 99/905/33 102/194/33
f 86/341/34 88/197/34 225/199/34
f 550/342/49 150/910/49 94/343/49
f 129/344/44 108/245/44 275/247/44
f 103/210/38 101/329/38 315/331/38
f 501/345/57 150/910/57 550/342/57
f 170/347/16 154/911/16 318/348/16
f 280/350/36 320/912/36 151/351/36
f 169/353/27 153/913/27 110/354/27
f 278/356/32 318/914/32 154/357/32
f 532/359/36 504/915/36 158/360/36
f 323/362/58 155/916/58 39/363/58
f 504/365/27 157/917/27 115/366/27
f 503/367/12 156/918/12 36/368/12
f 154/369/27 170/372/27 164/370/27
f 170/372/27 169/353/27 163/355/27
f 153/373/16 169/919/16 326/374/16
f 336/376/32 174/920/32 170/377/32
f 114/379/48 165/382/48 330/380/48
f 165/382/48 166/262/48 332/264/48
f 151/383/12 167/385/12 159/384/12
f 167/385/12 168/251/12 160/253/12
f 505/386/27 165/388/27 114/387/27
f 506/142/27 166/141/27 165/388/27
f 41/389/12 161/391/12 507/390/12
f 161/391/12 162/48/12 508/50/12
f 173/392/16 174/921/16 336/393/16
f 174/395/27 173/922/27 169/353/27
f 171/396/59 172/923/59 168/397/59
f 333/399/36 171/924/36 167/400/36
f 206/402/48 181/925/48 338/403/48
f 190/405/176 182/926/176 340/406/176
f 112/408/44 179/927/44 342/409/44
f 188/410/177 180/453/177 344/411/177
f 509/413/27 181/426/27 206/414/27
f 516/416/63 510/182/63 182/181/63
f 202/418/12 177/422/12 511/419/12
f 514/421/64 186/928/64 178/87/64
f 177/422/65 185/424/65 513/423/65
f 185/424/12 186/928/12 514/421/12
f 515/425/66 189/427/66 181/426/66
f 516/416/27 190/417/27 189/427/27
f 342/409/178 179/927/178 187/428/178
f 187/428/68 188/410/68 348/412/68
f 338/403/179 181/925/179 189/430/179
f 189/430/70 190/929/70 352/432/70
f 38/46/12 199/434/12 517/433/12
f 199/434/71 200/436/71 518/435/71
f 200/436/12 201/930/12 519/437/12
f 519/437/72 201/930/72 202/418/72
f 521/438/27 203/441/27 116/138/27
f 522/440/73 204/443/73 203/441/73
f 523/442/27 205/444/27 204/443/27
f 523/442/74 524/415/74 206/414/74
f 116/445/60 203/931/60 354/446/60
f 354/446/180 203/931/180 204/447/180
f 204/447/76 205/932/76 358/449/76
f 205/450/181 206/933/181 360/451/181
f 180/453/45 195/934/45 362/454/45
f 362/454/182 195/934/182 196/455/182
f 196/455/79 197/458/79 366/457/79
f 197/458/183 198/254/183 368/255/183
f 274/246/184 109/891/184 216/459/184
f 216/459/82 217/462/82 372/461/82
f 217/462/185 218/304/185 374/306/185
f 106/463/48 213/935/48 376/464/48
f 376/464/186 213/935/186 214/465/186
f 214/465/85 215/936/85 380/467/85
f 525/468/27 213/471/27 106/469/27
f 526/470/86 214/472/86 213/471/86
f 527/134/27 215/136/27 214/472/27
f 74/473/12 207/475/12 528/474/12
f 207/475/87 208/477/87 529/476/87
f 208/477/12 209/866/12 530/42/12
f 377/478/88 379/778/88 209/479/88
f 378/466/37 380/467/37 430/481/37
f 375/483/187 377/478/187 208/480/187
f 264/485/58 375/483/58 207/484/58
f 263/296/37 376/464/37 375/483/37
f 211/487/188 371/322/188 373/488/188
f 452/490/92 372/461/92 374/306/92
f 369/323/93 371/322/93 211/487/93
f 451/321/16 370/460/16 372/461/16
f 273/492/189 369/323/189 210/491/189
f 193/494/190 365/610/190 367/495/190
f 456/497/97 366/457/97 368/255/97
f 363/498/98 365/610/98 193/494/98
f 364/456/16 366/457/16 456/497/16
f 361/501/191 363/498/191 192/499/191
f 343/503/101 361/501/101 191/502/101
f 344/411/16 362/454/16 361/501/16
f 201/505/192 357/937/192 359/506/192
f 307/508/103 358/449/103 360/404/103
f 355/510/104 357/779/104 201/511/104
f 356/448/37 358/449/37 307/508/37
f 353/514/193 355/510/193 200/512/193
f 243/516/58 353/514/58 199/515/58
f 244/213/37 354/446/37 353/514/37
f 349/518/107 351/782/107 186/519/107
f 350/431/37 352/432/37 1/521/37
f 337/523/194 349/518/194 185/520/194
f 345/525/110 347/634/110 184/526/110
f 346/429/16 348/412/16 454/528/16
f 341/530/195 345/525/195 183/527/195
f 184/526/196 347/634/196 343/503/196
f 454/528/114 348/412/114 344/411/114
f 282/532/101 341/530/101 175/531/101
f 281/305/16 342/409/16 341/530/16
f 186/534/197 351/938/197 339/535/197
f 1/521/116 352/432/116 340/297/116
f 359/509/58 337/523/58 177/524/58
f 360/404/37 338/403/37 337/523/37
f 173/539/36 334/542/36 326/540/36
f 334/542/36 333/399/36 325/401/36
f 333/543/16 335/546/16 172/544/16
f 334/394/16 336/393/16 335/546/16
f 329/547/58 331/550/58 162/548/58
f 330/380/37 332/264/37 331/550/37
f 292/551/58 329/547/58 161/549/58
f 291/381/37 330/380/37 329/547/37
f 168/553/32 172/939/32 335/554/32
f 335/554/32 336/376/32 328/378/32
f 320/556/16 325/559/16 167/557/16
f 319/375/16 326/374/16 325/559/16
f 157/560/48 324/562/48 290/263/48
f 324/562/37 323/362/37 289/364/37
f 531/563/36 322/566/36 156/564/36
f 532/359/36 321/361/36 322/566/36
f 152/567/32 317/570/32 277/568/32
f 317/570/32 318/914/32 278/356/32
f 153/571/36 319/574/36 279/572/36
f 319/574/36 320/912/36 280/350/36
f 327/575/16 317/578/16 152/576/16
f 328/349/16 318/348/16 317/578/16
f 239/579/38 316/582/38 28/580/38
f 240/211/38 315/331/38 316/582/38
f 303/583/101 276/586/101 49/584/101
f 304/291/16 275/247/16 276/586/16
f 10/587/34 313/590/34 226/588/34
f 313/590/34 314/288/34 225/199/34
f 277/591/101 302/594/101 48/592/101
f 278/340/16 301/287/16 302/594/16
f 20/595/56 283/598/56 246/596/56
f 283/598/56 284/257/56 245/338/56
f 311/599/16 272/601/16 447/600/16
f 312/332/16 271/334/16 272/601/16
f 316/582/38 310/603/38 26/602/38
f 315/331/38 309/330/38 310/603/38
f 448/604/37 269/606/37 306/605/37
f 270/328/37 305/327/37 306/605/37
f 447/607/29 448/675/29 55/608/29
f 455/500/16 456/497/16 365/610/16
f 393/611/118 252/614/118 432/612/118
f 394/317/32 251/316/32 252/614/32
f 265/615/29 311/618/29 446/616/29
f 266/240/36 312/314/36 311/618/36
f 235/619/37 234/622/37 439/620/37
f 236/208/37 233/312/37 234/622/37
f 461/289/3 298/284/3 83/623/3
f 474/625/32 105/940/32 241/626/32
f 259/628/118 238/631/118 437/629/118
f 260/234/32 237/308/32 238/631/32
f 373/488/101 282/532/101 75/533/101
f 374/306/16 281/305/16 282/532/16
f 445/617/29 446/616/29 44/632/29
f 453/529/16 454/528/16 347/634/16
f 395/636/120 396/300/120 291/299/120
f 339/537/58 264/485/58 74/486/58
f 340/297/37 263/296/37 264/485/37
f 443/639/37 247/642/37 268/640/37
f 248/216/37 267/293/37 268/640/37
f 299/643/101 303/583/101 59/585/101
f 300/286/16 304/291/16 303/583/16
f 470/37/121 310/603/121 309/330/121
f 478/309/32 253/791/32 254/646/32
f 302/594/101 299/643/101 58/644/101
f 301/287/16 300/286/16 299/643/16
f 293/647/50 297/649/50 8/8/50
f 294/269/50 298/284/50 297/649/50
f 296/650/46 286/653/46 22/651/46
f 295/278/46 285/258/46 286/653/46
f 156/654/101 322/657/101 280/655/101
f 322/657/16 321/274/16 279/276/16
f 231/658/37 222/661/37 441/659/37
f 232/273/37 221/272/37 222/661/37
f 287/662/50 293/647/50 6/648/50
f 288/270/50 294/269/50 293/647/50
f 331/550/58 289/364/58 39/363/58
f 332/264/37 290/263/37 289/364/37
f 227/664/47 287/667/47 4/665/47
f 228/259/47 288/261/47 287/667/47
f 286/653/46 283/598/46 20/595/46
f 285/258/46 284/257/46 283/598/46
f 367/495/101 230/669/101 37/668/101
f 368/255/16 229/200/16 230/669/16
f 249/670/32 258/673/32 434/671/32
f 250/250/32 257/249/32 258/673/32
f 276/586/101 273/492/101 34/493/101
f 275/247/16 274/246/16 273/492/16
f 272/674/29 269/676/29 448/675/29
f 271/244/36 270/243/36 269/676/36
f 268/677/29 265/615/29 445/617/29
f 267/241/36 266/240/36 265/615/36
f 97/679/9 295/787/9 469/645/9
f 209/681/198 379/941/198 261/682/198
f 430/481/124 380/467/124 262/684/124
f 255/686/118 259/628/118 436/630/118
f 256/235/32 260/234/32 259/628/32
f 434/688/16 258/691/16 255/689/16
f 257/228/16 256/227/16 255/689/16
f 223/692/34 253/695/34 16/693/34
f 224/198/34 254/225/34 253/695/34
f 252/696/37 249/699/37 433/697/37
f 251/219/37 250/221/37 249/699/37
f 219/700/37 247/642/37 443/639/37
f 220/217/37 248/216/37 247/642/37
f 18/702/199 246/703/199 243/516/199
f 245/214/126 244/213/126 243/516/126
f 242/704/38 239/579/38 30/581/38
f 241/209/38 240/211/38 239/579/38
f 238/706/37 235/619/37 438/621/37
f 237/206/37 236/208/37 235/619/37
f 234/708/36 231/711/36 440/709/36
f 233/205/36 232/204/36 231/711/36
f 230/669/200 227/713/200 3/712/200
f 229/200/128 228/202/128 227/713/128
f 226/588/34 223/692/34 14/694/34
f 225/199/34 224/198/34 223/692/34
f 222/714/32 219/717/32 442/715/32
f 221/193/32 220/192/32 219/717/32
f 305/718/36 396/300/36 395/636/36
f 306/719/29 395/636/29 450/635/29
f 262/684/129 394/942/129 393/720/129
f 262/722/32 107/943/32 388/315/32
f 120/723/43 387/298/43 396/300/43
f 391/173/132 392/157/132 142/169/132
f 389/155/132 391/173/132 131/165/132
f 392/157/132 390/151/132 130/168/132
f 387/156/132 389/155/132 117/144/132
f 390/151/132 388/150/132 107/135/132
f 60/76/133 386/65/133 385/79/133
f 61/72/133 385/79/133 383/62/133
f 50/74/133 384/59/133 386/65/133
f 51/51/133 383/62/133 381/64/133
f 40/43/133 382/57/133 384/59/133
f 22/724/134 405/25/134 406/26/134
f 22/724/134 20/726/134 404/21/134
f 20/726/201 18/833/201 412/727/201
f 27/728/202 407/29/202 471/18/202
f 16/730/137 403/17/137 402/15/137
f 14/731/137 402/15/137 401/13/137
f 12/732/137 401/13/137 400/12/137
f 8/733/138 399/7/138 398/5/138
f 6/734/138 398/5/138 397/1/138
f 4/735/203 397/1/203 411/3/203
f 502/137/140 534/132/140 427/133/140
f 87/738/204 416/104/204 464/129/204
f 105/740/142 426/120/142 425/127/142
f 425/127/142 424/126/142 101/742/142
f 424/126/142 423/113/142 100/112/142
f 84/128/143 426/120/143 480/122/143
f 422/119/144 421/118/144 95/744/144
f 95/744/144 421/118/144 420/114/144
f 93/746/205 420/114/205 428/116/205
f 472/111/206 423/113/206 99/747/206
f 92/749/147 90/751/147 418/108/147
f 88/750/147 417/106/147 418/108/147
f 86/130/147 416/104/147 417/106/147
f 81/752/148 414/98/148 415/100/148
f 78/754/148 413/94/148 414/98/148
f 78/754/207 79/737/207 427/133/207
f 444/678/29 445/617/29 69/633/29
f 53/756/37 443/639/37 444/641/37
f 442/701/37 443/639/37 53/756/37
f 441/716/32 442/715/32 63/759/32
f 440/660/37 441/659/37 72/571/37
f 439/710/36 440/709/36 73/762/36
f 438/621/37 439/620/37 62/764/37
f 437/707/37 438/621/37 52/765/37
f 436/630/118 437/629/118 42/767/118
f 435/687/118 436/630/118 68/768/118
f 56/770/16 434/688/16 435/690/16
f 433/672/32 434/671/32 56/772/32
f 432/698/37 433/697/37 54/774/37
f 431/613/118 432/612/118 46/776/118
f 429/482/37 430/481/37 379/778/37
f 376/464/90 378/466/90 429/482/90
f 362/454/100 364/456/100 455/500/100
f 342/409/112 346/429/112 453/529/112
f 354/446/106 356/448/106 308/513/106
f 308/513/37 307/508/37 357/779/37
f 381/185/119 450/635/119 292/637/119
f 274/246/95 370/460/95 451/321/95
f 261/721/130 431/613/130 382/777/130
f 338/403/109 350/431/109 77/522/109
f 77/522/37 1/521/37 351/782/37
f 76/99/141 458/739/141 464/129/141
f 86/341/52 314/288/52 461/289/52
f 535/783/55 87/944/55 458/335/55
f 461/289/3 462/9/3 297/649/3
f 8/733/208 460/877/208 463/90/208
f 464/129/209 459/131/209 83/753/209
f 9/6/210 399/7/210 463/90/210
f 460/10/52 462/9/52 313/590/52
f 98/784/211 422/119/211 472/111/211
f 25/27/136 466/729/136 471/18/136
f 100/785/121 467/680/121 469/645/121
f 296/786/9 470/37/9 469/645/9
f 546/788/54 98/945/54 468/318/54
f 97/745/212 467/870/212 472/111/212
f 310/603/121 470/37/121 465/39/121
f 471/18/213 465/20/213 24/725/213
f 85/109/143 476/743/143 480/122/143
f 242/789/32 478/309/32 477/627/32
f 92/790/32 474/625/32 477/627/32
f 253/791/32 478/309/32 475/311/32
f 540/793/40 84/946/40 476/229/40
f 403/17/30 16/730/30 475/187/30
f 17/16/22 403/17/22 479/123/22
f 419/110/21 480/122/21 474/121/21
f 428/116/140 534/132/140 502/137/140
f 324/794/36 532/359/36 531/563/36
f 155/796/36 323/795/36 531/563/36
f 529/476/12 530/42/12 210/797/12
f 212/799/87 528/474/87 529/476/87
f 489/88/12 528/474/12 212/799/12
f 216/801/27 527/134/27 526/470/27
f 218/803/86 217/802/86 526/470/86
f 218/803/27 525/468/27 500/180/27
f 195/805/74 524/415/74 523/442/74
f 196/806/27 523/442/27 522/440/27
f 198/808/73 197/807/73 522/440/73
f 198/808/27 521/438/27 492/439/27
f 519/437/72 520/420/72 191/810/72
f 518/435/12 519/437/12 192/811/12
f 194/813/71 517/433/71 518/435/71
f 481/47/12 517/433/12 194/813/12
f 187/815/27 516/416/27 515/425/27
f 180/817/66 188/816/66 515/425/66
f 513/423/12 514/421/12 183/818/12
f 176/820/65 511/419/65 513/423/65
f 514/421/64 512/89/64 175/821/64
f 520/420/12 511/419/12 176/820/12
f 179/822/63 510/182/63 516/416/63
f 180/817/27 509/413/27 524/415/27
f 507/390/12 508/50/12 159/384/12
f 484/52/12 507/390/12 160/253/12
f 163/355/27 506/142/27 505/386/27
f 164/370/27 505/386/27 495/143/27
f 155/823/12 503/367/12 482/49/12
f 158/825/27 504/365/27 493/140/27
f 157/826/36 504/915/36 532/359/36
f 549/827/57 148/947/57 501/345/57
f 112/804/27 500/180/27 510/182/27
f 141/828/27 499/166/27 498/167/27
f 129/829/27 498/167/27 496/163/27
f 128/831/27 497/145/27 499/166/27
f 108/830/27 496/163/27 494/164/27
f 111/371/27 495/143/27 497/145/27
f 110/354/27 493/140/27 506/142/27
f 113/809/27 492/439/27 502/137/27
f 109/832/26 494/164/26 527/134/26
f 150/115/25 501/873/25 534/132/25
f 491/45/14 533/40/14 412/727/14
f 512/89/12 489/88/12 75/800/12
f 487/75/12 488/73/12 58/834/12
f 485/71/12 487/75/12 59/835/12
f 488/73/12 486/53/12 48/837/12
f 483/44/12 485/71/12 49/836/12
f 486/53/12 484/52/12 35/252/12
f 508/50/12 482/49/12 36/368/12
f 491/45/12 481/47/12 37/814/12
f 530/42/11 483/44/11 34/838/11
f 533/40/10 490/41/10 19/22/10
f 549/827/156 554/346/156 490/839/156
f 540/793/157 553/231/157 473/841/157
f 546/788/158 552/320/158 466/843/158
f 535/783/159 551/336/159 457/845/159
f 490/839/156 554/346/156 550/342/156
f 550/848/160 543/858/160 21/849/160
f 548/319/161 538/196/161 29/851/161
f 457/845/159 551/336/159 547/294/159
f 5/854/162 544/280/162 549/325/162
f 466/843/158 552/320/158 548/319/158
f 547/294/162 545/281/162 7/856/162
f 23/857/160 542/948/160 546/788/160
f 7/856/162 545/281/162 544/280/162
f 543/858/160 542/948/160 23/857/160
f 541/230/163 539/218/163 15/859/163
f 473/841/157 553/231/157 541/230/157
f 31/861/161 537/195/161 540/223/161
f 539/218/163 536/190/163 13/863/163
f 29/851/161 538/196/161 537/195/161
f 13/863/163 536/190/163 535/189/163
